<?xml version="1.0" encoding="UTF-8" standalone="no"?>
<svg
   xmlns:dc="http://purl.org/dc/elements/1.1/"
   xmlns:cc="http://creativecommons.org/ns#"
   xmlns:rdf="http://www.w3.org/1999/02/22-rdf-syntax-ns#"
   xmlns:svg="http://www.w3.org/2000/svg"
   xmlns="http://www.w3.org/2000/svg"
   xmlns:sodipodi="http://sodipodi.sourceforge.net/DTD/sodipodi-0.dtd"
   xmlns:inkscape="http://www.inkscape.org/namespaces/inkscape"
   viewBox="0 0 520 520"
   version="1.1"
   id="svg4"
   sodipodi:docname="critical-role.svg"
   width="520"
   height="520"
   inkscape:version="1.0.1 (0767f8302a, 2020-10-17)">
  <metadata
     id="metadata10">
    <rdf:RDF>
      <cc:Work
         rdf:about="">
        <dc:format>image/svg+xml</dc:format>
        <dc:type
           rdf:resource="http://purl.org/dc/dcmitype/StillImage" />
        <dc:title></dc:title>
      </cc:Work>
    </rdf:RDF>
  </metadata>
  <defs
     id="defs8" />
  <sodipodi:namedview
     pagecolor="#ffffff"
     bordercolor="#666666"
     borderopacity="1"
     objecttolerance="10"
     gridtolerance="10"
     guidetolerance="10"
     inkscape:pageopacity="0"
     inkscape:pageshadow="2"
     inkscape:window-width="2040"
     inkscape:window-height="1338"
     id="namedview6"
     showgrid="false"
     fit-margin-top="0"
     fit-margin-left="0"
     fit-margin-right="0"
     fit-margin-bottom="0"
     inkscape:zoom="1.96875"
     inkscape:cx="223.01388"
     inkscape:cy="256"
     inkscape:window-x="72"
     inkscape:window-y="27"
     inkscape:window-maximized="0"
     inkscape:current-layer="svg4" />
  <path
     d="m 261.99832,4 c 0.26,0.15 216.57,124.51 217.12,124.72 3,1.18 3.7,3.46 3.7,6.56 q -0.11,125.17 0,250.36 a 5.88,5.88 0 0 1 -3.38,5.78 c -21.37,12 -207.86,118.29 -218.93,124.58 h -3 C 178.17832,470.34 39.258325,390.56 39.108325,390.48 a 3.29,3.29 0 0 1 -1.88,-3.24 c 0,-0.87 0,-225.94 -0.05,-253.1 a 5,5 0 0 1 2.93,-4.93 C 63.368325,116.11 249.37832,10 260.24832,4 Z m -10.42,20.42 -0.22,-0.16 q -97.12,55.29 -194.179995,110.61 c 0,0.12 0.08,0.23 0.13,0.35 l 30.86,11.64 c -7.71,6 -8.32,6 -10.65,5.13 -0.1,0 -24.17,-9.28 -26.8,-10 v 230.43 c 0.88,-1.41 64.069995,-110.91 64.129995,-111 1.62,-2.82 3,-1.92 9.12,-1.52 1.4,0.09 1.48,0.22 0.78,1.42 -41.189995,71.33 -36.399995,63 -67.479995,116.94 -0.81,1.4 -0.61,1.13 1.25,1.13 H 245.01832 c 1.44,0 1.69,-0.23 1.7,-1.64 v -8.88 c 0,-1.34 2.36,-0.81 -18.37,-1 -7.46,-0.07 -14.14,-3.22 -21.38,-12.7 -7.38,-9.66 -14.62,-19.43 -21.85,-29.21 -2.28,-3.08 -3.45,-2.38 -16.76,-2.38 -1.75,0 -1.78,0 -1.76,1.82 0.29,26.21 0.15,25.27 1,32.66 0.52,4.37 2.16,4.2 9.69,4.81 3.14,0.26 3.88,4.08 0.52,4.92 -1.57,0.39 -31.6,0.51 -33.67,-0.1 a 2.42,2.42 0 0 1 0.3,-4.73 c 3.29,-0.76 6.16,0.81 6.66,-4.44 1.3,-13.66 1.17,-9 1.1,-79.42 0,-10.82 -0.35,-12.58 -5.36,-13.55 -1.22,-0.24 -3.54,-0.16 -4.69,-0.55 -2.88,-1 -2,-4.84 1.77,-4.85 33.67,0 46.08,-1.07 56.06,4.86 7.74,4.61 12,11.48 12.51,20.4 0.88,14.59 -6.51,22.35 -15,32.59 a 1.46,1.46 0 0 0 0,2.22 c 2.6,3.25 5,6.63 7.71,9.83 27.56,33.23 24.11,30.54 41.28,33.06 0.89,0.13 1,-0.42 1,-1.15 v -11 c 0,-1 0.32,-1.43 1.41,-1.26 a 72.37,72.37 0 0 0 23.58,-0.3 c 1.08,-0.15 1.5,0.2 1.48,1.33 0,0.11 0.88,26.69 0.87,26.8 -0.05,1.52 0.67,1.62 1.89,1.62 h 186.71 q -40.73,-70.55 -81.24,-140.82 c 2.26,-0.66 -0.4,0 6.69,-1.39 2,-0.39 2.05,-0.41 3.11,1.44 7.31,12.64 77.31,134 77.37,134.06 V 142 c -1.72,0.5 -103.3,38.72 -105.76,39.68 -1.08,0.42 -1.55,0.2 -1.91,-0.88 -0.63,-1.9 -1.34,-3.76 -2.09,-5.62 -0.32,-0.79 -0.09,-1.13 0.65,-1.39 0.1,0 95.53,-35.85 103,-38.77 -65.42,-37.57 -130.56,-75 -196,-112.6 l 86.82,150.39 -0.28,0.33 c -9.57,-0.9 -10.46,-1.6 -11.8,-3.94 -1,-1.69 -73.5,-127.71 -82,-142.16 -9.1,14.67 -83.56,146.21 -85.37,146.32 -2.93,0.17 -5.88,0.08 -9.25,0.08 q 43.25,-74.74 86.18,-149 z m 51.93,129.92 a 37.68,37.68 0 0 0 5.54,-0.85 c 1.69,-0.3 2.53,0.2 2.6,1.92 0,0.11 0.07,19.06 -0.86,20.45 -0.93,1.39 -1.88,1.22 -2.6,-0.19 -5,-9.69 6.22,-9.66 -39.12,-12 -0.7,0 -1,0.23 -1,0.93 0,0.13 3.72,122 3.73,122.11 0,0.89 0.52,1.2 1.21,1.51 a 83.92,83.92 0 0 1 8.7,4.05 c 7.31,4.33 11.38,10.84 12.41,19.31 1.44,11.8 -2.77,35.77 -32.21,37.14 -2.75,0.13 -28.26,1.08 -34.14,-23.25 -4.66,-19.26 8.26,-32.7 19.89,-36.4 a 2.45,2.45 0 0 0 2,-2.66 c 0.1,-5.63 3,-107.1 3.71,-121.35 0.05,-1.08 -0.62,-1.16 -1.35,-1.15 -32.35,0.52 -36.75,-0.34 -40.22,8.52 -2.42,6.18 -4.14,1.32 -3.95,0.23 q 1.59,-9 3.31,-18 c 0.4,-2.11 1.43,-2.61 3.43,-1.86 5.59,2.11 6.72,1.7 37.25,1.92 1.73,0 1.78,-0.08 1.82,-1.85 0.68,-27.49 0.58,-22.59 1,-29.55 a 2.69,2.69 0 0 0 -1.63,-2.8 c -5.6,-2.91 -8.75,-7.55 -8.9,-13.87 -0.35,-14.81 17.72,-21.67 27.38,-11.51 6.84,7.19 5.8,18.91 -2.45,24.15 a 4.35,4.35 0 0 0 -2.22,4.34 c 0,0.59 -0.11,-4.31 1,30.05 0,0.9 0.43,1.12 1.24,1.11 0.1,0 23,-0.09 34.47,-0.37 z m -199.06,-8.64 c 19.84,-4.51 32.68,-0.56 52.49,1.69 2.76,0.31 3.74,1.22 3.62,4 -0.21,5 -1.16,22.33 -1.24,23.15 a 2.65,2.65 0 0 1 -1.63,2.34 c -4.06,1.7 -3.61,-4.45 -4,-7.29 -3.13,-22.43 -73.869995,-32.7 -74.629995,25.4 -0.31,23.92 17,53.63 54.079995,50.88 27.24,-2 19,-20.19 24.84,-20.47 a 2.72,2.72 0 0 1 3,3.36 c -1.83,10.85 -3.42,18.95 -3.45,19.15 -1.54,9.17 -86.699995,22.09 -93.349995,-42.06 -2.71,-25.85 10.44,-53.37 40.269995,-60.15 z m 80,87.67 h -19.49 a 2.57,2.57 0 0 1 -2.66,-1.79 c 2.38,-3.75 5.89,0.92 5.86,-6.14 -0.08,-25.75 0.21,-38 0.23,-40.1 0,-3.42 -0.53,-4.65 -3.32,-4.94 -7,-0.72 -3.11,-3.37 -1.11,-3.38 11.84,-0.1 22.62,-0.18 30.05,0.72 8.77,1.07 16.71,12.63 7.93,22.62 -2,2.25 -4,4.42 -6.14,6.73 0.95,1.15 6.9,8.82 17.28,19.68 2.66,2.78 6.15,3.51 9.88,3.13 a 2.21,2.21 0 0 0 2.23,-2.12 c 0.3,-3.42 0.26,4.73 0.45,-40.58 0,-5.65 -0.34,-6.58 -3.23,-6.83 -3.95,-0.35 -4,-2.26 -0.69,-3.37 l 19.09,-0.09 c 0.32,0 4.49,0.53 1,3.38 0,0.05 -0.16,0 -0.24,0 -3.61,0.26 -3.94,1 -4,4.62 -0.27,43.93 0.07,40.23 0.41,42.82 0.11,0.84 0.27,2.23 5.1,2.14 2.49,0 3.86,3.37 0,3.4 -10.37,0.08 -20.74,0 -31.11,0.07 -10.67,0 -13.47,-6.2 -24.21,-20.82 -1.6,-2.18 -8.31,-2.36 -8.2,-0.37 0.88,16.47 0,17.78 4,17.67 4.75,-0.1 4.73,3.57 0.83,3.55 z m 275,-10.15 c -1.21,7.13 0.17,10.38 -5.3,10.34 -61.55,-0.42 -47.82,-0.22 -50.72,-0.31 a 18.4,18.4 0 0 1 -3.63,-0.73 c -2.53,-0.6 1.48,-1.23 -0.38,-5.6 -1.43,-3.37 -2.78,-6.78 -4.11,-10.19 a 1.94,1.94 0 0 0 -2,-1.44 138,138 0 0 0 -14.58,0.07 2.23,2.23 0 0 0 -1.62,1.06 c -1.58,3.62 -3.07,7.29 -4.51,11 -1.27,3.23 7.86,1.32 12.19,2.16 3,0.57 4.53,3.72 0.66,3.73 h -26.37 c -2.92,0 -3.09,-3.15 -0.74,-3.21 a 6.3,6.3 0 0 0 5.92,-3.47 c 1.5,-3 2.8,-6 4.11,-9.09 18.18,-42.14 17.06,-40.17 18.42,-41.61 a 1.83,1.83 0 0 1 3,0 c 2.93,3.34 18.4,44.71 23.62,51.92 2,2.7 5.74,2 6.36,2 3.61,0.13 4,-1.11 4.13,-4.29 0.09,-1.87 0.08,1.17 0.07,-41.24 0,-4.46 -2.36,-3.74 -5.55,-4.27 -0.26,0 -2.56,-0.63 -0.08,-3.06 0.21,-0.2 -0.89,-0.24 21.7,-0.15 2.32,0 5.32,2.75 -1.21,3.45 a 2.56,2.56 0 0 0 -2.66,2.83 c -0.07,1.63 -0.19,38.89 0.29,41.21 a 3.06,3.06 0 0 0 3.23,2.43 c 13.25,0.43 14.92,0.44 16,-3.41 1.67,-5.78 4.13,-2.52 3.73,-0.19 z m -104.72,64.37 c -4.24,0 -4.42,-3.39 -0.61,-3.41 35.91,-0.16 28.11,0.38 37.19,-0.65 1.68,-0.19 2.38,0.24 2.25,1.89 -0.26,3.39 -0.64,6.78 -1,10.16 -0.25,2.16 -3.2,2.61 -3.4,-0.15 -0.38,-5.31 -2.15,-4.45 -15.63,-5.08 -1.58,-0.07 -1.64,0 -1.64,1.52 V 308 c 0,1.65 0,1.6 1.62,1.47 3.12,-0.25 10.31,0.34 15.69,-1.52 0.47,-0.16 3.3,-1.79 3.07,1.76 0,0.21 -0.76,10.35 -1.18,11.39 -0.53,1.29 -1.88,1.51 -2.58,0.32 -1.17,-2 0,-5.08 -3.71,-5.3 -15.42,-0.9 -12.91,-2.55 -12.91,6 0,12.25 -0.76,16.11 3.89,16.24 16.64,0.48 14.4,0 16.43,-5.71 0.84,-2.37 3.5,-1.77 3.18,0.58 -0.44,3.21 -0.85,6.43 -1.23,9.64 0,0.36 -0.16,2.4 -4.66,2.39 -37.16,-0.08 -34.54,-0.19 -35.21,-0.31 -2.72,-0.51 -2.2,-3 0.22,-3.45 1.1,-0.19 4,0.54 4.16,-2.56 2.44,-56.22 -0.07,-51.34 -3.91,-51.33 z m -0.41,-109.52 c 2.46,0.61 3.13,1.76 2.95,4.65 -0.33,5.3 -0.34,9 -0.55,9.69 -0.66,2.23 -3.15,2.12 -3.34,-0.27 -0.38,-4.81 -3.05,-7.82 -7.57,-9.15 -26.28,-7.73 -32.81,15.46 -27.17,30.22 5.88,15.41 22,15.92 28.86,13.78 5.92,-1.85 5.88,-6.5 6.91,-7.58 1.23,-1.3 2.25,-1.84 3.12,1.1 0,0.1 0.57,11.89 -6,12.75 -1.6,0.21 -19.38,3.69 -32.68,-3.39 -21,-11.19 -16.74,-35.47 -6.88,-45.33 14,-14.06 39.91,-7.06 42.32,-6.47 z m -28.34,106.07 c 3.28,0 3.66,3 0.16,3.43 -2.61,0.32 -5,-0.42 -5,5.46 0,2 -0.19,29.05 0.4,41.45 0.11,2.29 1.15,3.52 3.44,3.65 22,1.21 14.95,-1.65 18.79,-6.34 1.83,-2.24 2.76,0.84 2.76,1.08 0.35,13.62 -4,12.39 -5.19,12.4 l -38.16,-0.19 c -1.93,-0.23 -2.06,-3 -0.42,-3.38 2,-0.48 4.94,0.4 5.13,-2.8 1,-15.87 0.57,-44.65 0.34,-47.81 -0.27,-3.77 -2.8,-3.27 -5.68,-3.71 -2.47,-0.38 -2,-3.22 0.34,-3.22 1.45,-0.02 17.97,-0.03 23.09,-0.02 z m -31.63,-57.79 c 0.07,4.08 2.86,3.46 6,3.58 2.61,0.1 2.53,3.41 -0.07,3.43 -6.48,0 -13.7,0 -21.61,-0.06 -3.84,0 -3.38,-3.35 0,-3.37 4.49,0 3.24,1.61 3.41,-45.54 0,-5.08 -3.27,-3.54 -4.72,-4.23 -2.58,-1.23 -1.36,-3.09 0.41,-3.15 1.29,0 20.19,-0.41 21.17,0.21 0.98,0.62 1.87,1.65 -0.42,2.86 -1,0.52 -3.86,-0.28 -4.15,2.47 0,0.21 -0.82,1.63 -0.07,43.8 z m -36.91,274.27 a 2.93,2.93 0 0 0 3.26,0 c 17,-9.79 182,-103.57 197.42,-112.51 -0.14,-0.43 11.26,-0.18 -181.52,-0.27 -1.22,0 -1.57,0.37 -1.53,1.56 0,0.1 1.25,44.51 1.22,50.38 a 28.33,28.33 0 0 1 -1.36,7.71 c -0.55,1.83 0.38,-0.5 -13.5,32.23 -0.73,1.72 -1,2.21 -2,-0.08 -4.19,-10.34 -8.28,-20.72 -12.57,-31 a 23.6,23.6 0 0 1 -2,-10.79 c 0.16,-2.46 0.8,-16.12 1.51,-48 0,-1.95 0,-2 -2,-2 H 61.368325 c 2.58,1.63 178.319995,102.57 195.999995,112.76 z m -90.9,-188.75 c 0,2.4 0.36,2.79 2.76,3 11.54,1.17 21,3.74 25.64,-7.32 6,-14.46 2.66,-34.41 -12.48,-38.84 -2,-0.59 -16,-2.76 -15.94,1.51 0.05,8.04 0.01,11.61 0.02,41.65 z m 105.75,-15.05 c 0,2.13 1.07,38.68 1.09,39.13 0.34,9.94 -25.58,5.77 -25.23,-2.59 0.08,-2 1.37,-37.42 1.1,-39.43 -14.1,7.44 -14.42,40.21 6.44,48.8 a 17.9,17.9 0 0 0 22.39,-7.07 c 4.91,-7.76 6.84,-29.47 -5.43,-39 a 2.53,2.53 0 0 1 -0.36,0.12 z m -12.28,-198 c -9.83,0 -9.73,14.75 -0.07,14.87 9.66,0.12 10.1,-14.88 0.07,-14.91 z m -80.15,103.83 c 0,1.8 0.41,2.4 2.17,2.58 13.62,1.39 12.51,-11 12.16,-13.36 -1.69,-11.22 -14.38,-10.2 -14.35,-7.81 0.05,4.5 -0.03,13.68 0.02,18.59 z m 212.32,6.4 -6.1,-15.84 c -2.16,5.48 -4.16,10.57 -6.23,15.84 z"
     id="path2"  fill="#000000" />
</svg>
