<?xml version="1.0" encoding="UTF-8" standalone="no"?>
<svg
   xmlns:dc="http://purl.org/dc/elements/1.1/"
   xmlns:cc="http://creativecommons.org/ns#"
   xmlns:rdf="http://www.w3.org/1999/02/22-rdf-syntax-ns#"
   xmlns:svg="http://www.w3.org/2000/svg"
   xmlns="http://www.w3.org/2000/svg"
   xmlns:sodipodi="http://sodipodi.sourceforge.net/DTD/sodipodi-0.dtd"
   xmlns:inkscape="http://www.inkscape.org/namespaces/inkscape"
   version="1.1"
   x="0px"
   y="0px"
   viewBox="0 0 35 35"
   xml:space="preserve"
   id="svg243"
   sodipodi:docname="noun_magic_598261.svg"
   width="35"
   height="35"
   inkscape:version="1.0.1 (0767f8302a, 2020-10-17)"><metadata
     id="metadata249"><rdf:RDF><cc:Work
         rdf:about=""><dc:format>image/svg+xml</dc:format><dc:type
           rdf:resource="http://purl.org/dc/dcmitype/StillImage" /><dc:title></dc:title></cc:Work></rdf:RDF></metadata><defs
     id="defs247" /><sodipodi:namedview
     pagecolor="#ffffff"
     bordercolor="#666666"
     borderopacity="1"
     objecttolerance="10"
     gridtolerance="10"
     guidetolerance="10"
     inkscape:pageopacity="0"
     inkscape:pageshadow="2"
     inkscape:window-width="1998"
     inkscape:window-height="1213"
     id="namedview245"
     showgrid="false"
     fit-margin-top="0"
     fit-margin-left="0"
     fit-margin-right="0"
     fit-margin-bottom="0"
     inkscape:zoom="12.6"
     inkscape:cx="16.286046"
     inkscape:cy="21.63606"
     inkscape:window-x="72"
     inkscape:window-y="27"
     inkscape:window-maximized="0"
     inkscape:current-layer="svg243" /><g
     id="g237"
     transform="translate(1.5,1.5)"><path
       d="m 16,32 c -0.552,0 -1,-0.447 -1,-1 0,-3.309 2.691,-6 6,-6 0.553,0 1,0.447 1,1 0,0.553 -0.447,1 -1,1 -2.206,0 -4,1.794 -4,4 0,0.553 -0.448,1 -1,1 z"
       id="path195" fill="#000000" /><path
       d="m 11,27 c -0.552,0 -1,-0.447 -1,-1 0,-0.553 0.448,-1 1,-1 2.206,0 4,-1.794 4,-4 0,-0.553 0.448,-1 1,-1 0.552,0 1,0.447 1,1 0,3.309 -2.691,6 -6,6 z"
       id="path197" fill="#000000" /><path
       d="m 16,32 c -0.552,0 -1,-0.447 -1,-1 0,-2.206 -1.794,-4 -4,-4 -0.552,0 -1,-0.447 -1,-1 0,-0.553 0.448,-1 1,-1 3.309,0 6,2.691 6,6 0,0.553 -0.448,1 -1,1 z"
       id="path199" fill="#000000" /><path
       d="m 21,27 c -3.309,0 -6,-2.691 -6,-6 0,-0.553 0.448,-1 1,-1 0.552,0 1,0.447 1,1 0,2.206 1.794,4 4,4 0.553,0 1,0.447 1,1 0,0.553 -0.447,1 -1,1 z"
       id="path201" fill="#000000" /><path
       d="M 7,5 C 6.448,5 6,4.552 6,4 V 1 C 6,0.448 6.448,0 7,0 7.552,0 8,0.448 8,1 V 4 C 8,4.552 7.552,5 7,5 Z"
       id="path203" fill="#000000" /><path
       d="M 7,14 C 6.448,14 6,13.552 6,13 V 10 C 6,9.448 6.448,9 7,9 7.552,9 8,9.448 8,10 v 3 c 0,0.552 -0.448,1 -1,1 z"
       id="path205" fill="#000000" /><path
       d="M 7,8 C 6.74,8 6.48,7.89 6.29,7.71 6.11,7.52 6,7.26 6,7 6,6.74 6.11,6.48 6.29,6.29 6.67,5.92 7.33,5.92 7.71,6.29 7.89,6.48 8,6.74 8,7 8,7.26 7.89,7.52 7.71,7.71 7.52,7.89 7.26,8 7,8 Z"
       id="path207" fill="#000000" /><path
       d="M 16,15 C 15.74,15 15.48,14.89 15.29,14.71 15.11,14.52 15,14.26 15,14 c 0,-0.26 0.11,-0.52 0.29,-0.71 0.38,-0.37 1.05,-0.37 1.42,0 0.18,0.19 0.29,0.45 0.29,0.71 0,0.26 -0.11,0.52 -0.29,0.71 C 16.52,14.89 16.26,15 16,15 Z"
       id="path209" fill="#000000" /><path
       d="M 3,32 C 2.74,32 2.48,31.89 2.29,31.71 2.11,31.52 2,31.26 2,31 2,30.729 2.11,30.47 2.29,30.29 2.67,29.92 3.34,29.92 3.71,30.29 3.89,30.479 4,30.729 4,31 4,31.26 3.89,31.52 3.71,31.71 3.52,31.89 3.27,32 3,32 Z"
       id="path211" fill="#000000" /><path
       d="M 1,18 C 0.74,18 0.48,17.89 0.29,17.71 0.11,17.52 0,17.27 0,17 0,16.74 0.11,16.48 0.29,16.29 0.66,15.92 1.33,15.92 1.71,16.29 1.89,16.48 2,16.74 2,17 2,17.26 1.89,17.52 1.71,17.71 1.52,17.89 1.26,18 1,18 Z"
       id="path213" fill="#000000" /><path
       d="M 23,20 C 22.74,20 22.479,19.89 22.29,19.71 22.109,19.52 22,19.26 22,19 c 0,-0.26 0.109,-0.521 0.29,-0.71 0.38,-0.37 1.05,-0.37 1.42,0 0.18,0.189 0.29,0.45 0.29,0.71 0,0.26 -0.11,0.52 -0.29,0.71 C 23.52,19.89 23.26,20 23,20 Z"
       id="path215" fill="#000000" /><path
       d="M 29,30 C 28.729,30 28.479,29.89 28.29,29.71 28.109,29.52 28,29.26 28,29 c 0,-0.271 0.109,-0.521 0.29,-0.71 0.37,-0.37 1.05,-0.37 1.42,0 0.18,0.189 0.29,0.439 0.29,0.71 0,0.26 -0.11,0.52 -0.29,0.71 C 29.52,29.89 29.26,30 29,30 Z"
       id="path217" fill="#000000" /><path
       d="M 31,16 C 30.729,16 30.479,15.89 30.29,15.71 30.109,15.52 30,15.26 30,15 c 0,-0.27 0.109,-0.52 0.29,-0.71 0.359,-0.36 1.04,-0.37 1.42,0 0.18,0.19 0.29,0.44 0.29,0.71 0,0.26 -0.11,0.52 -0.29,0.71 C 31.52,15.89 31.26,16 31,16 Z"
       id="path219" fill="#000000" /><path
       d="M 9,22 C 8.74,22 8.48,21.89 8.29,21.71 8.11,21.52 8,21.26 8,21 8,20.74 8.11,20.479 8.29,20.29 8.66,19.92 9.33,19.92 9.71,20.29 9.89,20.479 10,20.74 10,21 10,21.26 9.89,21.52 9.71,21.71 9.52,21.89 9.26,22 9,22 Z"
       id="path221" fill="#000000" /><path
       d="M 16,2 C 15.74,2 15.48,1.89 15.29,1.71 15.11,1.52 15,1.26 15,1 c 0,-0.26 0.11,-0.52 0.29,-0.71 0.38,-0.37 1.04,-0.37 1.42,0 C 16.89,0.48 17,0.74 17,1 17,1.26 16.89,1.52 16.71,1.71 16.52,1.89 16.26,2 16,2 Z"
       id="path223" fill="#000000" /><path
       d="M 4,8 H 1 C 0.448,8 0,7.552 0,7 0,6.448 0.448,6 1,6 H 4 C 4.552,6 5,6.448 5,7 5,7.552 4.552,8 4,8 Z"
       id="path225" fill="#000000" /><path
       d="M 13,8 H 10 C 9.448,8 9,7.552 9,7 9,6.448 9.448,6 10,6 h 3 c 0.552,0 1,0.448 1,1 0,0.552 -0.448,1 -1,1 z"
       id="path227" fill="#000000" /><path
       d="m 26,12 c -0.553,0 -1,-0.448 -1,-1 0,-3.309 2.691,-6 6,-6 0.553,0 1,0.448 1,1 0,0.552 -0.447,1 -1,1 -2.206,0 -4,1.794 -4,4 0,0.552 -0.447,1 -1,1 z"
       id="path229" fill="#000000" /><path
       d="m 21,7 c -0.553,0 -1,-0.448 -1,-1 0,-0.552 0.447,-1 1,-1 2.206,0 4,-1.794 4,-4 0,-0.552 0.447,-1 1,-1 0.553,0 1,0.448 1,1 0,3.309 -2.691,6 -6,6 z"
       id="path231" fill="#000000" /><path
       d="M 26,12 C 25.447,12 25,11.552 25,11 25,8.794 23.206,7 21,7 20.447,7 20,6.552 20,6 c 0,-0.552 0.447,-1 1,-1 3.309,0 6,2.691 6,6 0,0.552 -0.447,1 -1,1 z"
       id="path233" fill="#000000" /><path
       d="m 31,7 c -3.309,0 -6,-2.691 -6,-6 0,-0.552 0.447,-1 1,-1 0.553,0 1,0.448 1,1 0,2.206 1.794,4 4,4 0.553,0 1,0.448 1,1 0,0.552 -0.447,1 -1,1 z"
       id="path235" fill="#000000" /></g><text
     x="0"
     y="47"
     fill="#000000"
     font-size="5px"
     font-weight="bold"
     font-family="'Helvetica Neue', Helvetica, Arial-Unicode, Arial, Sans-serif"
     id="text239">Created by ✦ Shmidt Sergey ✦</text><text
     x="0"
     y="52"
     fill="#000000"
     font-size="5px"
     font-weight="bold"
     font-family="'Helvetica Neue', Helvetica, Arial-Unicode, Arial, Sans-serif"
     id="text241">from the Noun Project</text></svg>
