<?xml version="1.0" encoding="UTF-8" standalone="no"?>
<svg
   xmlns:dc="http://purl.org/dc/elements/1.1/"
   xmlns:cc="http://creativecommons.org/ns#"
   xmlns:rdf="http://www.w3.org/1999/02/22-rdf-syntax-ns#"
   xmlns:svg="http://www.w3.org/2000/svg"
   xmlns="http://www.w3.org/2000/svg"
   xmlns:sodipodi="http://sodipodi.sourceforge.net/DTD/sodipodi-0.dtd"
   xmlns:inkscape="http://www.inkscape.org/namespaces/inkscape"
   version="1.1"
   x="0px"
   y="0px"
   viewBox="0 0 95 95"
   enable-background="new 0 0 100 100"
   xml:space="preserve"
   id="svg411"
   sodipodi:docname="noun_Pinch_976231.svg"
   width="95"
   height="95"
   inkscape:version="1.0.1 (0767f8302a, 2020-10-17)"><metadata
     id="metadata417"><rdf:RDF><cc:Work
         rdf:about=""><dc:format>image/svg+xml</dc:format><dc:type
           rdf:resource="http://purl.org/dc/dcmitype/StillImage" /><dc:title /></cc:Work></rdf:RDF></metadata><defs
     id="defs415" /><sodipodi:namedview
     pagecolor="#ffffff"
     bordercolor="#666666"
     borderopacity="1"
     objecttolerance="10"
     gridtolerance="10"
     guidetolerance="10"
     inkscape:pageopacity="0"
     inkscape:pageshadow="2"
     inkscape:window-width="2036"
     inkscape:window-height="1134"
     id="namedview413"
     showgrid="false"
     fit-margin-top="0"
     fit-margin-left="0"
     fit-margin-right="0"
     fit-margin-bottom="0"
     inkscape:zoom="5.7021091"
     inkscape:cx="31.289039"
     inkscape:cy="27.706593"
     inkscape:window-x="72"
     inkscape:window-y="27"
     inkscape:window-maximized="0"
     inkscape:current-layer="svg411"
     inkscape:document-rotation="0" /><g
     id="g405"
     transform="translate(-2.4678891,-2.4944429)"><path
       fill="#000000"
       d="m 72.627,81.016 c -0.498,0 -0.964,-0.124 -1.385,-0.368 C 70.785,80.384 65.017,75.24 63.94,75.074 49.312,72.813 14.31,57.827 14.206,57.738 6.514,51.185 6.479,49.642 6.466,49.062 6.454,48.541 6.618,48.024 7.021,47.719 c 7.354,-5.563 17.063,0.965 18.359,1.938 1.151,0.213 10.293,0.852 10.969,0.787 0.008,-0.066 0.013,-0.129 0.013,-0.18 -0.737,-0.927 -15.549,-12.14 -17.817,-12.048 -1.263,0.051 -5.169,2.377 -7.544,2.632 -2.373,0.255 -4.625,-1.817 -5.429,-3.916 -0.501,-1.309 0.1,-2.707 1.259,-3.799 0.987,-0.93 11.254,-7.469 16.145,-7.469 0.492,0 0.942,0.062 1.339,0.183 2.203,0.674 5.343,2.4 7.704,3.805 0.114,-0.875 0.5,-1.666 1.158,-2.306 1.895,-1.843 4.173,-2.401 6.65,-1.644 0.117,-1.223 0.756,-2.379 1.864,-3.197 1.955,-1.445 4.697,-2.155 7.298,-0.797 0.365,0.191 0.846,0.47 1.363,0.781 0.208,-0.726 0.703,-1.58 1.812,-2.296 2.36,-1.525 4.596,-1.624 7.022,-0.277 3.639,2.021 5.356,3.395 6.669,4.578 1.997,1.798 14.406,14.685 21.445,25.599 0.331,0.513 5.698,6.125 6.481,7.061 0.57,0.68 0.827,1.488 0.746,2.336 -0.147,1.528 -1.345,2.659 -1.726,2.982 L 75.887,79.386 c -0.234,0.248 -1.625,1.63 -3.26,1.63 z M 15.994,55.32 c 2.543,1.164 38.381,15.847 45.449,16.33 1.759,0.12 3.019,0.324 3.858,0.752 1.262,0.643 7.025,5.373 7.375,5.608 0.255,-0.055 18.84,-18.551 18.863,-18.809 0.002,-0.022 0.004,-0.045 -0.059,-0.12 C 90.76,58.221 85.24,52.437 84.777,51.72 77.896,41.05 65.793,28.477 63.846,26.724 62.745,25.732 61.274,24.509 57.728,22.54 56.271,21.73 55,21.517 53.792,22.714 c -0.667,0.661 -0.422,1.5 0.184,2.106 0.543,0.543 0.588,1.41 0.104,2.006 -0.485,0.596 -1.341,0.731 -1.985,0.31 -0.032,-0.021 -3.204,-2.091 -4.496,-2.767 -1.538,-0.804 -4.37,-0.119 -4.789,1.655 -0.101,0.427 0.199,0.921 0.639,1.36 0.514,0.514 0.585,1.321 0.171,1.917 -0.415,0.597 -1.198,0.809 -1.857,0.507 L 40.07,29.031 c -2.063,-1.022 -3.446,-0.91 -4.802,0.466 -1.002,1.018 0.15,2.176 0.443,2.603 0.405,0.592 0.334,1.387 -0.168,1.898 -0.501,0.512 -1.296,0.596 -1.895,0.202 -0.067,-0.044 -8.96,-5.576 -10.673,-5.536 -3.605,0.084 -13.021,5.686 -14.09,6.655 -0.507,0.478 -0.572,2.039 2.019,2.519 0.597,0.005 5.64,-2.623 7.641,-2.623 1.183,0 2.316,0.328 3.369,0.975 8.458,5.2 16.326,11.063 17.181,12.803 0.51,1.038 0.714,2.593 0.322,3.339 -0.388,0.739 -1.46,0.926 -1.851,0.985 -1.01,0.149 -13.571,-0.935 -13.757,-1.084 -0.051,-0.041 -8.622,-6.359 -14.014,-2.916 1.006,1.289 3.736,3.893 6.199,6.003 z"
       id="path397" /><path
       fill="#000000"
       d="m 37.525,36.263 c -0.261,0 -0.524,-0.068 -0.765,-0.21 l -3.054,-1.814 c -0.712,-0.423 -0.947,-1.344 -0.523,-2.056 0.423,-0.712 1.344,-0.945 2.056,-0.523 l 3.054,1.814 c 0.712,0.423 0.947,1.344 0.523,2.056 -0.28,0.471 -0.779,0.733 -1.291,0.733 z"
       id="path399" /><path
       fill="#000000"
       d="m 45.492,31.668 c -0.246,0 -0.496,-0.061 -0.726,-0.189 l -3.104,-1.722 c -0.725,-0.402 -0.986,-1.314 -0.584,-2.039 0.402,-0.725 1.315,-0.986 2.039,-0.584 l 3.104,1.722 c 0.725,0.402 0.986,1.314 0.584,2.039 -0.274,0.494 -0.786,0.773 -1.313,0.773 z"
       id="path401" /><path
       fill="#000000"
       d="m 55.386,29.235 -3.277,-2.09 c -0.698,-0.445 -0.903,-1.373 -0.458,-2.071 0.445,-0.698 1.373,-0.905 2.071,-0.458 L 57,26.706 c 0.698,0.445 0.932,1.391 0.458,2.071 -0.562,0.806 -1.822,0.618 -2.072,0.458 z"
       id="path403" /></g><text
     x="-22.066656"
     y="105.72946"
     fill="#000000"
     font-size="5px"
     font-weight="bold"
     font-family="'Helvetica Neue', Helvetica, Arial-Unicode, Arial, Sans-serif"
     id="text407">Created by H Alberto Gongora</text><text
     x="-22.066656"
     y="110.72945"
     fill="#000000"
     font-size="5px"
     font-weight="bold"
     font-family="'Helvetica Neue', Helvetica, Arial-Unicode, Arial, Sans-serif"
     id="text409">from the Noun Project</text></svg>
