<?xml version="1.0" encoding="UTF-8" standalone="no"?>
<svg
   xmlns:dc="http://purl.org/dc/elements/1.1/"
   xmlns:cc="http://creativecommons.org/ns#"
   xmlns:rdf="http://www.w3.org/1999/02/22-rdf-syntax-ns#"
   xmlns:svg="http://www.w3.org/2000/svg"
   xmlns="http://www.w3.org/2000/svg"
   xmlns:sodipodi="http://sodipodi.sourceforge.net/DTD/sodipodi-0.dtd"
   xmlns:inkscape="http://www.inkscape.org/namespaces/inkscape"
   version="1.1"
   x="0px"
   y="0px"
   viewBox="0 0 100 100"
   xml:space="preserve"
   id="svg461"
   sodipodi:docname="noun_Sheep_1181356.svg"
   width="100"
   height="100"
   inkscape:version="1.0.1 (0767f8302a, 2020-10-17)"><metadata
     id="metadata467"><rdf:RDF><cc:Work
         rdf:about=""><dc:format>image/svg+xml</dc:format><dc:type
           rdf:resource="http://purl.org/dc/dcmitype/StillImage" /><dc:title>sheep</dc:title></cc:Work></rdf:RDF></metadata><defs
     id="defs465" /><sodipodi:namedview
     pagecolor="#ffffff"
     bordercolor="#666666"
     borderopacity="1"
     objecttolerance="10"
     gridtolerance="10"
     guidetolerance="10"
     inkscape:pageopacity="0"
     inkscape:pageshadow="2"
     inkscape:window-width="2092"
     inkscape:window-height="1112"
     id="namedview463"
     showgrid="false"
     fit-margin-top="0"
     fit-margin-left="0"
     fit-margin-right="0"
     fit-margin-bottom="0"
     inkscape:zoom="5.6456526"
     inkscape:cx="39.750405"
     inkscape:cy="55.567873"
     inkscape:window-x="72"
     inkscape:window-y="27"
     inkscape:window-maximized="0"
     inkscape:current-layer="svg461" /><title
     id="title453">sheep</title><g
     id="g10874"
     transform="translate(-2.301977,-1.5454972)"><path fill="#000000" 
       d="m 44.9,78.9 c 0,0 1.1,-0.7 4,-2.5 2.9,-1.8 7.4,-6 7.4,-6 l 0.1,8.7 c 0.9,0.8 1.4,1 2.9,0.5 1.1,-0.4 1.4,-1.4 1.4,-1.4 L 60.3,67.4 63.2,65.3 63.6,62 62.5,61.5 C 61.8,62.4 61,63.2 60.1,64 l -0.3,-4.3 2.7,-2 0.1,-2.9 -0.9,-0.3 -2.1,1.6 c 0,0 -0.3,-5.1 -0.4,-5.6 -0.5,-0.4 -0.5,-0.4 -1.6,-0.3 -1.1,0.1 -1.3,1 -1.3,1 v 7.5 c -2.3,1.7 -4.8,4.3 -7.6,6.4 -1.3,1 -2.7,1.5 -4,2.4 0,0 0,-7.2 -0.2,-7.7 -0.2,-0.5 -0.7,-0.6 -2,-0.6 -1.3,0 -1.5,0.9 -1.5,0.9 l -0.1,10 c -1.9,1.8 -4.2,3.2 -6.7,4.1 l 0.1,3.8 h 1 l 5.5,-4.1 -0.1,4.4 c -1.9,1.3 -3.9,2.3 -6,3.1 l 0.2,4.2 h 1 l 4.7,-3.5 c 0,0 -0.3,15 -0.1,15.7 0.6,0.7 1.4,0.8 2.9,0.6 1.5,-0.2 1.8,-1.2 1.8,-1.2 z m 4.3,-6.7 c -1.4,1.2 -2.8,2.2 -4.3,3.2 l -0.1,-4.6 c 0,0 1,-0.6 4.1,-2.4 3.1,-1.8 7.4,-6.2 7.4,-6.2 v 2.7 1.8 c -2.5,1.8 -4.9,3.6 -7.1,5.5 z"
       id="path451" /><path fill="#000000" 
       d="m 95.2,44.1 c 0,0 -12.1,-6.5 -12.7,-8.8 -0.4,-1.5 -6.1,-3.3 -9.7,-4.3 -0.2,-0.6 -0.6,-1.2 -1,-1.8 1.3,-1 2,-2.5 2,-4.1 0.1,-2.6 -1.9,-4.9 -4.6,-5 h -0.1 c 0,-0.2 0.1,-0.4 0.1,-0.6 0.1,-2.2 -1.7,-3.9 -3.8,-4 v 0 c -0.7,0 -1.5,0.2 -2.1,0.6 0,-0.1 0,-0.1 0,-0.2 0.1,-2.2 -1.7,-3.9 -3.8,-4 v 0 c -0.5,0 -1.1,0.1 -1.5,0.3 -1.3,-1.6 -3.6,-1.9 -5.2,-0.7 -0.2,0.1 -0.3,0.3 -0.5,0.4 -0.7,-1 -1.8,-1.5 -3,-1.5 -0.6,0 -1.3,0.2 -1.8,0.5 C 46.8,10 45.7,9.4 44.5,9.4 43,9.4 41.6,10.3 41,11.7 39.5,10.4 37.2,10.5 35.9,12 35,11.2 34.2,10.3 33.5,9.4 33.4,9.2 33.3,9 33.2,8.7 c 0,0 0,0 0,-0.1 0.1,-2.2 -1.7,-3.9 -3.8,-4 v 0 c -2.1,0 -7.1,1.3 -7.2,3.5 l -2.5,1.4 c -1.2,0.6 -3,1.9 -4.6,2.6 -0.6,0.3 -2.4,0.8 -2.4,0.8 0,0 -2.1,2.7 -2.1,4 0.1,0.6 0.3,1.2 0.6,1.7 l 3.3,-0.4 0.1,0.5 -3.2,0.5 c 0.9,0.9 2,1.6 3.2,1.9 2.1,0.6 6.7,0.1 10.2,0.8 h 0.3 c 0,1.9 0.1,3.8 0.5,5.6 -0.3,1.1 -0.1,2.2 0.5,3.1 -0.1,1.2 0.1,2.4 0.7,3.4 l -1.6,0.4 C 21.3,35.3 13.7,37 13,37.3 c -0.7,0.3 -1.1,1.1 -1,1.8 0.1,0.6 0.7,1.1 2,0.7 1.3,-0.4 8.4,-2.4 13.2,-2.2 v 0 c 0.1,1.1 0.6,2.1 1.4,2.8 -2.2,0.7 -4.8,1.5 -6.7,1.9 -3.9,0.9 -11.5,2.6 -12.2,2.9 -0.7,0.3 -1.1,1.1 -1,1.8 0.1,0.6 0.7,1.1 2,0.7 1.3,-0.4 8.4,-2.4 13.2,-2.2 2.7,0 5.3,-0.6 7.7,-1.7 0.6,0.5 1.4,0.8 2.2,0.8 h 0.1 c 0.5,1.5 2,2.5 3.6,2.5 0.3,0 0.6,0 0.8,-0.1 0.7,0.9 1.8,1.5 3,1.5 0.8,0 1.5,-0.2 2.1,-0.7 2,1.7 5,1.6 6.9,-0.3 0.7,0.4 1.4,0.6 2.2,0.6 1.5,0 2.9,-0.8 3.8,-2.1 0.3,0.1 0.6,0.1 0.8,0.1 2.6,-1.6 5.2,-3.1 7.8,-4.6 l 7.2,2 13.6,7.5 c 0,0 1.1,0.2 1.5,-0.7 0.1,-0.6 -0.1,-1.3 -0.6,-1.7 0,0 -12.1,-6.5 -12.7,-8.8 -0.2,-0.7 -1.6,-1.5 -3.5,-2.3 0,-0.1 0,-0.3 0,-0.4 0.5,-0.2 0.9,-0.5 1.2,-0.9 l 9.2,2.6 13.6,7.6 c 0,0 1.1,0.2 1.5,-0.7 0.1,-0.6 -0.2,-1.2 -0.7,-1.6 z M 26.4,13.9 c -0.7,0.1 -1.7,-0.3 -1.8,-1 -0.1,-0.7 0.8,-1.4 1.5,-1.5 0.6,-0.1 1.2,0.3 1.4,0.9 l -2,0.2 V 13 h 2 c -0.1,0.5 -0.6,0.9 -1.1,0.9 z"
       id="path455" /></g><text
     x="-8.6847935"
     y="111.4"
     fill="#000000"
     font-size="5px"
     font-weight="bold"
     font-family="'Helvetica Neue', Helvetica, Arial-Unicode, Arial, Sans-serif"
     id="text457">Created by Jos van Roij</text><text
     x="-8.6847935"
     y="116.4"
     fill="#000000"
     font-size="5px"
     font-weight="bold"
     font-family="'Helvetica Neue', Helvetica, Arial-Unicode, Arial, Sans-serif"
     id="text459">from the Noun Project</text></svg>
