<?xml version="1.0" encoding="UTF-8" standalone="no"?>
<svg
   xmlns:dc="http://purl.org/dc/elements/1.1/"
   xmlns:cc="http://creativecommons.org/ns#"
   xmlns:rdf="http://www.w3.org/1999/02/22-rdf-syntax-ns#"
   xmlns:svg="http://www.w3.org/2000/svg"
   xmlns="http://www.w3.org/2000/svg"
   xmlns:sodipodi="http://sodipodi.sourceforge.net/DTD/sodipodi-0.dtd"
   xmlns:inkscape="http://www.inkscape.org/namespaces/inkscape"
   viewBox="0 0 25 25"
   version="1.1"
   x="0px"
   y="0px"
   id="svg363"
   sodipodi:docname="noun_Muscle_1873688.svg"
   width="25"
   height="25"
   inkscape:version="1.0.1 (0767f8302a, 2020-10-17)">
  <metadata
     id="metadata369">
    <rdf:RDF>
      <cc:Work
         rdf:about="">
        <dc:format>image/svg+xml</dc:format>
        <dc:type
           rdf:resource="http://purl.org/dc/dcmitype/StillImage" />
        <dc:title>muscle</dc:title>
      </cc:Work>
    </rdf:RDF>
  </metadata>
  <defs
     id="defs367" />
  <sodipodi:namedview
     pagecolor="#ffffff"
     bordercolor="#666666"
     borderopacity="1"
     objecttolerance="10"
     gridtolerance="10"
     guidetolerance="10"
     inkscape:pageopacity="0"
     inkscape:pageshadow="2"
     inkscape:window-width="1934"
     inkscape:window-height="1192"
     id="namedview365"
     showgrid="false"
     fit-margin-top="0"
     fit-margin-left="0"
     fit-margin-right="0"
     fit-margin-bottom="0"
     inkscape:zoom="19.00703"
     inkscape:cx="14.558572"
     inkscape:cy="14.033173"
     inkscape:window-x="72"
     inkscape:window-y="27"
     inkscape:window-maximized="0"
     inkscape:current-layer="svg363" />
  <title
     id="title351">muscle</title>
  <desc
     id="desc353">Created with Sketch.</desc>
  <g
     stroke="none"
     stroke-width="1"
     fill="none"
     fill-rule="evenodd"
     id="g357"
     transform="translate(-2.6534099,-2.9890015)">
    <path
       d="m 12.545335,17.558704 c 1.23773,-0.320167 2.532871,-0.359036 3.72088,-0.235911 0.05945,0.0062 0.114853,0.01236 0.166012,0.01846 2.342141,-1.925096 4.565924,-2.130866 6.413579,-1.265419 0.384794,0.180239 0.66256,0.366047 0.825607,0.50482 l 0.06072,0.05855 c 2.185635,2.386056 2.448967,4.509658 0.839499,6.090217 -1.259779,1.237151 -3.609748,2.0327 -6.685126,2.430071 -2.596374,0.335479 -5.591272,0.356613 -8.0978283,0.0911 C 6.9887512,24.953998 5.296707,24.42858 5.1220227,23.389614 5.0024186,22.70623 4.9096622,21.993391 4.8421563,21.25412 4.5967457,18.566578 4.6894276,15.701819 4.9923497,12.93514 c 0.063142,-0.576698 0.1308519,-1.102038 0.1986682,-1.566062 0.023835,-0.163089 0.046022,-0.30708 0.066004,-0.430726 0.00907,-0.05613 0.016296,-0.09955 0.021443,-0.129727 0.04738,-0.412866 0.3808495,-1.1198112 0.9974905,-2.2603151 0.046966,-0.086865 0.095176,-0.1753467 0.144539,-0.2653037 C 6.6560911,7.8536632 6.9080481,7.4084438 7.1599515,6.9726094 7.2480843,6.8201249 7.32995,6.6796449 7.4034796,6.5543636 7.4379483,6.495635 7.4648436,6.4500131 7.4831874,6.4190088 7.7161735,5.9535199 8.0546848,5.6540948 8.484161,5.5700941 c 0.4676653,-0.09147 0.8811266,0.081193 1.2580688,0.3890706 0.078542,0.064151 0.1477935,0.1278994 0.2072959,0.1878721 0.2904923,0.091841 0.5468843,0.1915448 0.7712913,0.2989266 0.772961,0.3698729 1.173776,0.8473617 1.251598,1.3255396 0.764031,1.0173683 0.406915,1.9598939 -0.562661,2.506666 -0.186971,0.105439 -0.370023,0.184634 -0.532339,0.241788 -0.143064,0.14212 -0.351331,0.269528 -0.652948,0.434743 -0.09485,0.05195 -0.197185,0.105333 -0.3060528,0.159918 -0.1945392,0.09754 -0.4011053,0.19462 -0.6074255,0.287267 -0.034597,0.01553 -0.067097,0.03002 -0.097219,0.04335 -0.030963,0.09711 -0.058925,0.239158 -0.08052,0.417744 -0.044524,0.368211 -0.059046,0.859795 -0.046793,1.439558 0.010027,0.474447 0.037278,0.98458 0.076445,1.501723 0.017707,0.233795 0.036676,0.453322 0.05562,0.651965 0.00254,0.0266 0.00494,0.05148 0.0072,0.07458 0.6173406,0.888955 1.0122563,1.804883 1.2235193,2.710487 0.0169,0.07245 0.0324,0.143701 0.04658,0.21371 0.597797,-0.404218 1.287199,-0.699103 2.049515,-0.896294 z m 9.719782,-0.254925 c -1.434924,-0.672123 -3.16685,-0.484414 -5.176409,1.263076 -0.155683,0.13538 -0.364676,0.193148 -0.568209,0.157058 -0.06636,-0.01177 -0.202262,-0.03125 -0.395523,-0.05128 -1.039553,-0.107738 -2.181029,-0.07348 -3.236614,0.19957 -1.024006,0.264883 -1.85082,0.732234 -2.431339,1.431335 -0.429812,0.517609 -1.2731173,0.165924 -1.2037763,-0.502013 0.00719,-0.12899 0.00639,-0.269015 -0.00611,-0.440726 -0.018205,-0.250149 -0.05855,-0.522584 -0.1262029,-0.812585 -0.183483,-0.786522 -0.5384235,-1.58905 -1.1081372,-2.374166 -0.069158,-0.09531 -0.112251,-0.206859 -0.1250555,-0.323727 -0.00549,-0.05012 -0.01484,-0.140893 -0.026759,-0.26587 -0.019744,-0.20703 -0.039462,-0.43523 -0.057863,-0.67819 -0.040887,-0.539854 -0.069401,-1.073623 -0.080001,-1.575193 -0.035106,-1.661139 0.076346,-2.582854 0.6499503,-2.986114 0.039618,-0.02785 0.082109,-0.05142 0.1267519,-0.0703 0.048478,-0.0205 0.1364143,-0.05867 0.2503457,-0.109832 C 8.9400367,10.079571 9.1296577,9.9904529 9.304893,9.9025924 9.39972,9.8550475 9.4875868,9.809217 9.5669524,9.7657434 9.6989867,9.6934197 9.8032692,9.6298255 9.8700467,9.5813187 9.8585173,9.5896935 9.8451629,9.6028207 9.8167914,9.691453 9.8852993,9.5011249 10.064667,9.3370418 10.288362,9.2813843 10.388787,9.2563977 10.568035,9.1929706 10.737499,9.0974052 11.088724,8.8993393 11.110194,8.833748 10.787002,8.4706567 10.671234,8.3405954 10.611429,8.1731328 10.615754,8.003458 10.553269,7.916857 10.403698,7.8000788 10.129926,7.6690751 9.9289347,7.5728978 9.6797873,7.4800319 9.3792174,7.3928008 9.2436378,7.353453 9.1236806,7.2731757 9.0359159,7.1630577 9.0122082,7.1333117 8.9526662,7.0699318 8.877144,7.008247 8.8264239,6.96682 8.7850797,6.9403437 8.7619303,6.9240508 8.7431702,6.9506172 8.721397,6.987587 8.6977689,7.0363102 l -0.027063,0.050289 c -0.016066,0.027056 -0.046678,0.078891 -0.08975,0.1522779 C 8.5089026,7.3616434 8.4285472,7.4995317 8.3419804,7.6493067 8.0947417,8.0770706 7.8475566,8.5138576 7.6172874,8.933492 7.5692493,9.0210349 7.5223805,9.1070541 7.4767792,9.1913956 6.9840576,10.102705 6.6417563,10.835506 6.635138,10.941344 l -0.00886,0.07463 c -0.00392,0.02236 -0.011752,0.06874 -0.022927,0.137891 -0.018912,0.117023 -0.040064,0.254297 -0.062901,0.410559 -0.065534,0.448408 -0.1311749,0.957697 -0.1924929,1.517733 -0.2939084,2.684354 -0.3838336,5.463903 -0.1477654,8.049135 0.061339,0.671739 0.1443331,1.318611 0.2507234,1.941532 0.015353,0.01197 0.035789,0.02643 0.061322,0.04261 0.1451541,0.09198 0.3797588,0.191633 0.6896115,0.287849 0.6625951,0.205751 1.6099302,0.37902 2.7311527,0.497789 2.4020947,0.254451 5.2897707,0.234074 7.7779377,-0.08742 2.804015,-0.362308 4.910133,-1.075304 5.902914,-2.050253 1.008044,-0.989938 0.853664,-2.292534 -0.856633,-4.173913 -0.0871,-0.06754 -0.254493,-0.174401 -0.492108,-0.285701 z"
       fill="#000000"
       fill-rule="nonzero"
       id="path355" />
  </g>
  <text
     x="-4.7017102"
     y="39.45438"
     fill="#000000"
     font-size="5px"
     font-weight="bold"
     font-family="'Helvetica Neue', Helvetica, Arial-Unicode, Arial, Sans-serif"
     id="text359">Created by zalhan</text>
  <text
     x="-4.7017102"
     y="44.45438"
     fill="#000000"
     font-size="5px"
     font-weight="bold"
     font-family="'Helvetica Neue', Helvetica, Arial-Unicode, Arial, Sans-serif"
     id="text361">from the Noun Project</text>
</svg>
