<?xml version="1.0" encoding="UTF-8" standalone="no"?>
<svg
   xmlns:dc="http://purl.org/dc/elements/1.1/"
   xmlns:cc="http://creativecommons.org/ns#"
   xmlns:rdf="http://www.w3.org/1999/02/22-rdf-syntax-ns#"
   xmlns:svg="http://www.w3.org/2000/svg"
   xmlns="http://www.w3.org/2000/svg"
   xmlns:sodipodi="http://sodipodi.sourceforge.net/DTD/sodipodi-0.dtd"
   xmlns:inkscape="http://www.inkscape.org/namespaces/inkscape"
   version="1.1"
   x="0px"
   y="0px"
   viewBox="0 0 53 53.000001"
   xml:space="preserve"
   id="svg48"
   sodipodi:docname="noun_Clapperboard_3664147.svg"
   width="53"
   height="53"
   inkscape:version="1.0.1 (0767f8302a, 2020-10-17)"><metadata
     id="metadata54"><rdf:RDF><cc:Work
         rdf:about=""><dc:format>image/svg+xml</dc:format><dc:type
           rdf:resource="http://purl.org/dc/dcmitype/StillImage" /><dc:title></dc:title></cc:Work></rdf:RDF></metadata><defs
     id="defs52" /><sodipodi:namedview
     pagecolor="#ffffff"
     bordercolor="#666666"
     borderopacity="1"
     objecttolerance="10"
     gridtolerance="10"
     guidetolerance="10"
     inkscape:pageopacity="0"
     inkscape:pageshadow="2"
     inkscape:window-width="2033"
     inkscape:window-height="1242"
     id="namedview50"
     showgrid="false"
     fit-margin-top="0"
     fit-margin-left="0"
     fit-margin-right="0"
     fit-margin-bottom="0"
     inkscape:zoom="9.5035151"
     inkscape:cx="37.474269"
     inkscape:cy="42.706191"
     inkscape:window-x="72"
     inkscape:window-y="27"
     inkscape:window-maximized="0"
     inkscape:current-layer="svg48" /><g
     id="g42"
     transform="translate(-3.5,-3.4995678)"><path fill="#000000" 
       d="m 52.62,14.95 c 0.55,-0.09 0.92,-0.6 0.84,-1.14 L 52.54,7.88 C 52.46,7.33 51.95,6.96 51.4,7.04 l -8.51,1.31 9.14,6.69 z"
       id="path12" /><polygon fill="#000000" 
       points="36.17,9.39 45.43,16.05 49.24,15.46 40.12,8.78 "
       id="polygon14" /><polygon fill="#000000" 
       points="29.09,10.49 38.27,17.2 42.4,16.58 33.24,9.86 "
       id="polygon16" /><polygon fill="#000000" 
       points="22.16,11.55 31.25,18.24 35.58,17.57 26.26,10.92 "
       id="polygon18" /><polygon fill="#000000" 
       points="23.45,28.97 27.6,28.97 35.54,20.97 31.41,20.97 "
       id="polygon20" /><polygon fill="#000000" 
       points="30.42,28.97 34.55,28.97 42.53,20.97 38.36,20.97 "
       id="polygon22" /><polygon fill="#000000" 
       points="37.37,28.97 41.51,28.97 49.52,20.97 45.35,20.97 "
       id="polygon24" /><polygon fill="#000000" 
       points="21.57,20.97 17.41,20.97 9.37,28.97 13.55,28.97 "
       id="polygon26" /><path fill="#000000" 
       d="m 53,20.97 h -0.65 l -8.01,8 H 53 c 0.55,0 1,-0.45 1,-1 v -6 c 0,-0.55 -0.45,-1 -1,-1 z"
       id="path28" /><path fill="#000000" 
       d="m 6.62,28.89 7.96,-7.92 H 7 c -0.55,0 -1,0.45 -1,1 v 6 c 0,0.41 0.26,0.77 0.62,0.92 z"
       id="path30" /><path fill="#000000" 
       d="m 54,30.97 v 21 c 0,0.55 -0.45,1 -1,1 H 7 c -0.55,0 -1,-0.45 -1,-1 v -21 z"
       id="path32" /><path fill="#000000" 
       d="M 12.49,18.97 6.76,13.93 C 6.32,14.03 6,14.43 6,14.89 l 0.01,4.08 z"
       id="path34" /><polygon fill="#000000" 
       points="16.59,18.97 19.42,18.97 20.53,18.97 12.45,13.05 9.33,13.52 15.52,18.97 "
       id="polygon36" /><polygon fill="#000000" 
       points="18.92,15.31 23.93,18.97 26.42,18.97 26.55,18.97 28.52,18.67 19.36,11.98 15.25,12.62 "
       id="polygon38" /><polygon fill="#000000" 
       points="16.38,28.97 20.63,28.97 28.59,20.97 24.41,20.97 "
       id="polygon40" /></g><text
     x="-6"
     y="67.970863"
     fill="#000000"
     font-size="5px"
     font-weight="bold"
     font-family="'Helvetica Neue', Helvetica, Arial-Unicode, Arial, Sans-serif"
     id="text44">Created by Vectorstall</text><text
     x="-6"
     y="72.970863"
     fill="#000000"
     font-size="5px"
     font-weight="bold"
     font-family="'Helvetica Neue', Helvetica, Arial-Unicode, Arial, Sans-serif"
     id="text46">from the Noun Project</text></svg>
