<?xml version="1.0" encoding="UTF-8" standalone="no"?>
<svg
   xmlns:dc="http://purl.org/dc/elements/1.1/"
   xmlns:cc="http://creativecommons.org/ns#"
   xmlns:rdf="http://www.w3.org/1999/02/22-rdf-syntax-ns#"
   xmlns:svg="http://www.w3.org/2000/svg"
   xmlns="http://www.w3.org/2000/svg"
   xmlns:sodipodi="http://sodipodi.sourceforge.net/DTD/sodipodi-0.dtd"
   xmlns:inkscape="http://www.inkscape.org/namespaces/inkscape"
   version="1.1"
   x="0px"
   y="0px"
   viewBox="0 0 420 420"
   xml:space="preserve"
   id="svg499"
   sodipodi:docname="noun_Travel_1835377.svg"
   width="420"
   height="420"
   inkscape:version="1.0.1 (0767f8302a, 2020-10-17)"><metadata
     id="metadata505"><rdf:RDF><cc:Work
         rdf:about=""><dc:format>image/svg+xml</dc:format><dc:type
           rdf:resource="http://purl.org/dc/dcmitype/StillImage" /><dc:title></dc:title></cc:Work></rdf:RDF></metadata><defs
     id="defs503" /><sodipodi:namedview
     pagecolor="#ffffff"
     bordercolor="#666666"
     borderopacity="1"
     objecttolerance="10"
     gridtolerance="10"
     guidetolerance="10"
     inkscape:pageopacity="0"
     inkscape:pageshadow="2"
     inkscape:window-width="2260"
     inkscape:window-height="1255"
     id="namedview501"
     showgrid="false"
     fit-margin-top="0"
     fit-margin-left="0"
     fit-margin-right="0"
     fit-margin-bottom="0"
     inkscape:zoom="1.575"
     inkscape:cx="208.68"
     inkscape:cy="244.28"
     inkscape:window-x="300"
     inkscape:window-y="73"
     inkscape:window-maximized="0"
     inkscape:current-layer="svg499" /><g
     id="g10870"
     transform="translate(1.32,29.72)"><g
       id="g493"
       transform="translate(-47.32,-75.72)"><polygon
         points="167.209,278.397 209.929,321.544 265.177,265.808 222.488,223.118 "
         id="polygon489" fill="#000000"/><path
         d="m 77.32,436.28 h 357.36 c 16.542,0 30,-13.458 30,-30 v -232.4 c 0,-16.542 -13.458,-30 -30,-30 h -74.84 v -28.16 c 0,-22.056 -17.944,-40 -40,-40 H 192.16 c -22.056,0 -40,17.944 -40,40 v 28.16 H 77.32 c -16.542,0 -30,13.458 -30,30 v 232.4 c 0,16.542 13.458,30 30,30 z m 68.71,-164.989 65.89,-65.89 V 143.88 h -39.76 v -28.16 c 0,-11.028 8.972,-20 20,-20 h 127.68 c 11.028,0 20,8.972 20,20 v 28.16 H 231.92 v 60.385 l 54.439,54.44 c 3.893,3.894 3.906,10.201 0.031,14.111 l -64.185,64.752 -5.232,5.232 c -1.875,1.876 -4.419,2.93 -7.071,2.93 -0.008,0 -0.016,0 -0.024,0 -2.661,-0.007 -5.21,-1.073 -7.082,-2.964 l -56.801,-57.368 c -3.872,-3.911 -3.856,-10.215 0.035,-14.107 z"
         id="path491" fill="#000000"/></g></g><text
     x="-47.32"
     y="451.28"
     fill="#000000"
     font-size="5px"
     font-weight="bold"
     font-family="'Helvetica Neue', Helvetica, Arial-Unicode, Arial, Sans-serif"
     id="text495">Created by Panda Icons</text><text
     x="-47.32"
     y="456.28"
     fill="#000000"
     font-size="5px"
     font-weight="bold"
     font-family="'Helvetica Neue', Helvetica, Arial-Unicode, Arial, Sans-serif"
     id="text497">from the Noun Project</text></svg>
