<?xml version="1.0" encoding="UTF-8" standalone="no"?>
<svg
   xmlns:dc="http://purl.org/dc/elements/1.1/"
   xmlns:cc="http://creativecommons.org/ns#"
   xmlns:rdf="http://www.w3.org/1999/02/22-rdf-syntax-ns#"
   xmlns:svg="http://www.w3.org/2000/svg"
   xmlns="http://www.w3.org/2000/svg"
   xmlns:sodipodi="http://sodipodi.sourceforge.net/DTD/sodipodi-0.dtd"
   xmlns:inkscape="http://www.inkscape.org/namespaces/inkscape"
   version="1.1"
   x="0px"
   y="0px"
   viewBox="0 0 70 70"
   xml:space="preserve"
   id="svg14"
   sodipodi:docname="noun_dagger_3274037.svg"
   width="70"
   height="70"
   inkscape:version="1.0.1 (0767f8302a, 2020-10-17)"><metadata
     id="metadata20"><rdf:RDF><cc:Work
         rdf:about=""><dc:format>image/svg+xml</dc:format><dc:type
           rdf:resource="http://purl.org/dc/dcmitype/StillImage" /><dc:title></dc:title></cc:Work></rdf:RDF></metadata><defs
     id="defs18" /><sodipodi:namedview
     pagecolor="#ffffff"
     bordercolor="#666666"
     borderopacity="1"
     objecttolerance="10"
     gridtolerance="10"
     guidetolerance="10"
     inkscape:pageopacity="0"
     inkscape:pageshadow="2"
     inkscape:window-width="2275"
     inkscape:window-height="1202"
     id="namedview16"
     showgrid="false"
     fit-margin-top="0"
     fit-margin-left="0"
     fit-margin-right="0"
     fit-margin-bottom="0"
     inkscape:zoom="6.3356768"
     inkscape:cx="7.6309441"
     inkscape:cy="37.547299"
     inkscape:window-x="72"
     inkscape:window-y="27"
     inkscape:window-maximized="0"
     inkscape:current-layer="svg14" /><g
     id="g855"
     transform="translate(21.18359,0.75125217)"><rect
       x="11.495239"
       y="66.483826"
       width="4.6424599"
       height="2.01367"
       id="rect2" fill="#000000" /><path
       d="m 18.5235,56.18451 c 0,-3.24658 -0.72479,-6.29059 -1.94379,-8.29932 H 11.0531 c -1.21887,2.00873 -1.94373,5.05273 -1.94373,8.29932 0,3.2392 0.7149,6.29047 1.92871,8.29932 h 5.5567 c 1.21382,-2.00885 1.92872,-5.06012 1.92872,-8.29932 z"
       id="path4"  fill="#000000" /><path
       d="m 11.12622,41.52869 h 5.79816 V 26.87201 C 16.92438,15.38989 10.53711,5.40778 6.25128,0 c 4.88599,14.7793 4.93525,36.5163 4.87494,41.52869 z"
       id="path6" fill="#000000"  /><path
       d="m 1.17871,45.88519 h 25.2754 c 0.6499,0 1.17871,-0.52838 1.17871,-1.17828 0,-0.6499 -0.52881,-1.17822 -1.17871,-1.17822 H 1.17871 C 0.52881,43.52869 0,44.05701 0,44.70691 c 0,0.6499 0.52881,1.17828 1.17871,1.17828 z"
       id="path8"  fill="#000000" /></g><text
     x="-31.18359"
     y="94.248718"
     fill="#000000"
     font-size="5px"
     font-weight="bold"
     font-family="'Helvetica Neue', Helvetica, Arial-Unicode, Arial, Sans-serif"
     id="text10">Created by iconcheese</text><text
     x="-31.18359"
     y="99.248718"
     fill="#000000"
     font-size="5px"
     font-weight="bold"
     font-family="'Helvetica Neue', Helvetica, Arial-Unicode, Arial, Sans-serif"
     id="text12">from the Noun Project</text></svg>
