<?xml version="1.0" encoding="UTF-8" standalone="no"?>
<svg
   xmlns:dc="http://purl.org/dc/elements/1.1/"
   xmlns:cc="http://creativecommons.org/ns#"
   xmlns:rdf="http://www.w3.org/1999/02/22-rdf-syntax-ns#"
   xmlns:svg="http://www.w3.org/2000/svg"
   xmlns="http://www.w3.org/2000/svg"
   xmlns:sodipodi="http://sodipodi.sourceforge.net/DTD/sodipodi-0.dtd"
   xmlns:inkscape="http://www.inkscape.org/namespaces/inkscape"
   version="1.1"
   x="0px"
   y="0px"
   viewBox="0 0 100 100"
   enable-background="new 0 0 100 100"
   xml:space="preserve"
   id="svg343"
   sodipodi:docname="noun_Money_1704826.svg"
   width="100"
   height="100"
   inkscape:version="1.0.1 (0767f8302a, 2020-10-17)"><metadata
     id="metadata349"><rdf:RDF><cc:Work
         rdf:about=""><dc:format>image/svg+xml</dc:format><dc:type
           rdf:resource="http://purl.org/dc/dcmitype/StillImage" /><dc:title></dc:title></cc:Work></rdf:RDF></metadata><defs
     id="defs347" /><sodipodi:namedview
     pagecolor="#ffffff"
     bordercolor="#666666"
     borderopacity="1"
     objecttolerance="10"
     gridtolerance="10"
     guidetolerance="10"
     inkscape:pageopacity="0"
     inkscape:pageshadow="2"
     inkscape:window-width="2118"
     inkscape:window-height="1170"
     id="namedview345"
     showgrid="false"
     fit-margin-top="0"
     fit-margin-left="0"
     fit-margin-right="0"
     fit-margin-bottom="0"
     inkscape:zoom="8.064"
     inkscape:cx="45.907501"
     inkscape:cy="58.890613"
     inkscape:window-x="72"
     inkscape:window-y="27"
     inkscape:window-maximized="0"
     inkscape:current-layer="svg343" /><g
     id="g337"
     transform="translate(-0.27298376,-9.5525436)"><path
       d="m 91.806,43.245 c 2.869,0.248 4.542,-0.38 4.645,-2.322 0.224,-4.243 -14.86,-5.175 -18.579,-5.518 -7.989,-0.731 -15.616,-1.721 -22.353,-2.032 -0.681,-0.032 -0.806,0.394 -1.16,0.581 -5.033,2.65 -13.042,5.077 -20.611,7.256 -3.609,1.04 -7.276,2.197 -10.74,3.194 -6.02,1.729 -10.149,3.423 -16.547,3.772 -0.45,0.86 -2.142,2.293 -2.032,3.775 0.32,4.33 9.902,4.066 15.094,4.935 2.735,0.456 5.093,1.468 7.548,2.322 2.688,0.936 5.785,0.835 8.709,1.451 1.821,0.382 3.414,1.457 4.935,1.45 4.328,-0.019 9.104,-3.285 12.483,-3.483 0.005,1.263 0.095,2.611 -0.291,3.483 -4.051,0.944 -12.862,0.607 -12.482,5.516 0.458,5.91 9.838,1.125 12.773,0.872 0.592,1.918 -1.868,2.162 -3.194,2.613 -1.493,0.508 -3.227,1.149 -4.644,1.45 -2.714,0.574 -6.509,0.228 -6.096,3.194 0.518,3.73 9.654,0.426 11.321,0 1.396,-0.357 3.288,-0.985 3.483,-0.291 1.038,1.892 -0.865,1.394 -1.741,1.741 -4.644,1.845 -10.478,2.182 -14.225,3.775 -1.858,-1.177 -4.189,-0.707 -6.387,-1.454 -1.04,-0.351 -1.866,-1.32 -2.902,-1.74 -1.724,-0.702 -3.969,-0.96 -6.096,-1.45 C 18.483,75.356 14.426,74.674 10.234,73.722 8.332,73.29 6.002,72.087 4.138,73.431 c -0.411,2.336 2.052,3.396 3.774,4.065 3.971,1.54 8.284,2.434 12.192,3.483 2.26,0.606 4.649,0.838 6.386,1.451 1.367,0.481 2.639,1.834 4.064,2.323 3.493,1.192 7.049,1.52 8.708,-0.29 6.549,0.065 12.266,-3.219 18.869,-4.064 2.172,-1.466 4.825,-1.374 7.257,-2.033 2.379,-0.643 4.378,-1.896 6.677,-2.902 3.314,-1.448 7.088,-2.324 10.161,-3.773 1.108,-0.524 2.055,-1.297 3.191,-1.741 4.088,-1.595 10.099,-1.501 9.289,-6.968 -2.442,-1.655 -4.867,0.477 -6.966,1.163 -1.45,0.474 -2.944,0.632 -4.354,1.16 -4.138,1.549 -8.369,3.808 -12.483,4.355 0.34,-2.744 3.537,-2.408 5.516,-3.193 3.075,-1.221 6.534,-3.176 9.871,-4.645 2.863,-1.264 8.37,-3.043 7.837,-6.388 -3.992,-1.179 -7.631,1.796 -11.321,3.194 -3.882,1.471 -7.931,3.07 -11.902,3.482 -0.371,-1.952 1.922,-2.196 2.904,-2.612 6.121,-2.595 11.812,-4.81 16.546,-7.838 1.4,-0.893 3.476,-1.696 4.064,-3.191 -1.83,-2.39 -4.319,-0.782 -6.096,0 -5.715,2.508 -11.211,6.624 -17.419,7.257 0.04,-0.717 0.045,-1.398 -0.29,-1.742 1.815,-1.164 3.932,-1.377 5.806,-2.033 5.911,-2.066 10.732,-5.428 15.387,-8.706 z M 41.585,55.728 C 39.797,55.598 37.763,54.419 35.779,53.984 29.721,52.66 22.907,52.182 16.62,51.083 c 4.511,-1.874 10.671,-2.102 15.094,-4.062 6.051,2.752 14.284,3.326 20.901,5.515 -3.666,1.008 -7.027,3.479 -11.03,3.192 z M 37.522,45.567 c 1.218,-0.718 2.943,-0.927 4.354,-1.452 7.292,1.516 14.568,3.044 22.062,4.355 -0.454,1.189 -2.435,0.857 -3.483,1.451 -8.347,-0.752 -15.573,-2.62 -22.933,-4.354 z m 27.286,29.029 c -2.574,-0.669 -3.201,-0.104 -5.805,0.29 -0.982,-5.434 -0.572,-12.062 -0.581,-17.999 1.906,-0.997 4.498,-1.307 6.677,-2.032 0.257,0.128 0.519,0.255 0.58,0.58 -0.487,6.208 1.067,13.442 -0.871,19.161 z m 5.225,-27.579 c -0.512,-2.641 -3.034,-2.456 -6.386,-3.194 -3.866,-0.849 -9.512,-1.984 -14.225,-2.322 2.242,-1.24 4.916,-2.048 6.968,-3.483 8.021,1.462 16.405,2.557 24.675,3.774 -2.748,2.673 -7.26,3.579 -11.032,5.225 z"
       id="path331"  fill="#000000" /><path
       d="m 6.75,61.822 c 4.61,-0.14 8.325,2.153 13.062,2.902 3.903,0.616 7.636,1.132 11.902,1.451 1.15,1.23 5.789,2.432 7.257,0.579 0.346,-1.886 -2.437,-1.59 -4.063,-2.322 C 33.736,63.905 32.964,62.747 32.004,62.401 30.558,61.879 28.407,61.806 26.489,61.238 21.622,59.802 14.358,57.474 9.653,57.176 3.89,56.812 3.418,59.829 6.75,61.822 Z"
       id="path333"  fill="#000000" /><path
       d="m 11.104,69.951 c 5.776,2.236 11.76,2.83 17.998,4.062 2.954,0.585 5.788,2.622 8.709,1.743 3.617,-5.793 -8.125,-6.839 -13.934,-8.13 -2.708,-0.603 -5.896,-0.919 -8.708,-1.74 -4.083,-1.193 -9.067,-3.515 -10.741,-0.291 0.731,2.886 4.187,3.392 6.676,4.356 z"
       id="path335"  fill="#000000" /></g><text
     x="-12.475012"
     y="110.33894"
     fill="#000000"
     font-size="5px"
     font-weight="bold"
     font-family="'Helvetica Neue', Helvetica, Arial-Unicode, Arial, Sans-serif"
     id="text339">Created by Niko Caruso</text><text
     x="-12.475012"
     y="115.33894"
     fill="#000000"
     font-size="5px"
     font-weight="bold"
     font-family="'Helvetica Neue', Helvetica, Arial-Unicode, Arial, Sans-serif"
     id="text341">from the Noun Project</text></svg>
