<?xml version="1.0" encoding="UTF-8" standalone="no"?>
<svg
   xmlns:dc="http://purl.org/dc/elements/1.1/"
   xmlns:cc="http://creativecommons.org/ns#"
   xmlns:rdf="http://www.w3.org/1999/02/22-rdf-syntax-ns#"
   xmlns:svg="http://www.w3.org/2000/svg"
   xmlns="http://www.w3.org/2000/svg"
   xmlns:sodipodi="http://sodipodi.sourceforge.net/DTD/sodipodi-0.dtd"
   xmlns:inkscape="http://www.inkscape.org/namespaces/inkscape"
   viewBox="0 0 95.000001 95"
   x="0px"
   y="0px"
   version="1.1"
   id="svg483"
   sodipodi:docname="noun_swear_3460565.svg"
   width="95"
   height="95"
   inkscape:version="1.0.1 (0767f8302a, 2020-10-17)">
  <metadata
     id="metadata487">
    <rdf:RDF>
      <cc:Work
         rdf:about="">
        <dc:format>image/svg+xml</dc:format>
        <dc:type
           rdf:resource="http://purl.org/dc/dcmitype/StillImage" />
        <dc:title>Icon_Swear</dc:title>
      </cc:Work>
    </rdf:RDF>
  </metadata>
  <sodipodi:namedview
     pagecolor="#ffffff"
     bordercolor="#666666"
     borderopacity="1"
     objecttolerance="10"
     gridtolerance="10"
     guidetolerance="10"
     inkscape:pageopacity="0"
     inkscape:pageshadow="2"
     inkscape:window-width="2249"
     inkscape:window-height="1239"
     id="namedview485"
     showgrid="false"
     fit-margin-top="0"
     fit-margin-left="0"
     fit-margin-right="0"
     fit-margin-bottom="0"
     inkscape:zoom="6.3356768"
     inkscape:cx="47.525871"
     inkscape:cy="56.176396"
     inkscape:window-x="72"
     inkscape:window-y="27"
     inkscape:window-maximized="0"
     inkscape:current-layer="svg483" />
  <defs
     id="defs471">
    <style
       id="style469">.cls-1{fill-rule:evenodd;}</style>
  </defs>
  <title
     id="title473">Icon_Swear</title>
  <g
     id="g477"
     transform="translate(5.3899999,2.625)">
    <path
       class="cls-1"
       d="M 76.71,79.21 V 95 L 65,86 A 42.15,42.15 0 0 1 7.89,46.86 a 42.11,42.11 0 0 1 84.22,0 41.67,41.67 0 0 1 -15.4,32.35 z m -4.78,-5 0.79,-3.65 -3.72,-0.82 -0.79,3.64 z m -35.67,4.2 3.11,-1.46 -1.51,-3.21 -3.12,1.46 z m -13.51,-14.14 3,-1 a 6.63,6.63 0 0 1 -0.12,-4.25 4.42,4.42 0 0 1 2.37,-2.47 4.58,4.58 0 0 1 3.64,-0.19 4.36,4.36 0 0 1 2.6,2.31 3.75,3.75 0 0 1 0.37,1.88 10.82,10.82 0 0 1 -0.88,2.93 22.75,22.75 0 0 0 -1,2.89 7.26,7.26 0 0 0 -0.22,2.35 9.19,9.19 0 0 0 0.9,3.08 c 0.09,0.19 0.22,0.47 0.41,0.84 l 2.63,-1.23 a 12.37,12.37 0 0 1 -0.92,-2.56 4.21,4.21 0 0 1 0,-1.62 15.53,15.53 0 0 1 0.89,-2.62 14.13,14.13 0 0 0 1.22,-4.35 6.39,6.39 0 0 0 -0.62,-3.1 6.51,6.51 0 0 0 -4,-3.52 8,8 0 0 0 -6.07,0.61 7.8,7.8 0 0 0 -4.15,4 8.46,8.46 0 0 0 -0.05,6.02 z M 20,30.9 a 9.73,9.73 0 0 1 3.93,-4 11.27,11.27 0 0 1 5.59,-1.41 10.71,10.71 0 0 1 4.91,1.12 7.93,7.93 0 0 1 3.34,3 7.62,7.62 0 0 1 1.12,4 7.83,7.83 0 0 1 -0.89,3.52 7.25,7.25 0 0 1 -2.37,2.76 3.52,3.52 0 0 1 -1.82,0.78 0.87,0.87 0 0 1 -0.64,-0.25 0.8,0.8 0 0 1 -0.27,-0.6 c 0,-0.13 0.13,-0.79 0.39,-2 l 1.89,-8.62 h -2.32 l -0.44,2 a 5.22,5.22 0 0 0 -1.78,-1.78 4.37,4.37 0 0 0 -2.18,-0.58 5.66,5.66 0 0 0 -3.08,1 7.92,7.92 0 0 0 -2.65,3.07 8.83,8.83 0 0 0 -1.07,4.09 6.72,6.72 0 0 0 0.69,3 4.81,4.81 0 0 0 1.79,2.06 4.18,4.18 0 0 0 4.38,0.08 7.36,7.36 0 0 0 1.91,-1.55 3.43,3.43 0 0 0 0.24,1.11 1.81,1.81 0 0 0 0.82,0.77 3.37,3.37 0 0 0 1.46,0.27 7,7 0 0 0 5.22,-2.6 9.64,9.64 0 0 0 1.4,-11.44 9.67,9.67 0 0 0 -4.08,-3.89 12.79,12.79 0 0 0 -5.84,-1.3 13.07,13.07 0 0 0 -7.13,1.85 12.05,12.05 0 0 0 -4.52,5.41 14.12,14.12 0 0 0 -1.31,6 12.59,12.59 0 0 0 1.08,5.23 9.85,9.85 0 0 0 2.61,3.39 11.43,11.43 0 0 0 4.18,2.2 18.69,18.69 0 0 0 5.37,0.73 15.89,15.89 0 0 0 5.39,-0.81 12.41,12.41 0 0 0 3.87,-2.22 9,9 0 0 0 2.29,-2.75 H 39.11 A 9,9 0 0 1 35.64,45.29 13.12,13.12 0 0 1 29.89,46.42 15.13,15.13 0 0 1 24,45.31 8.25,8.25 0 0 1 20,42 10.2,10.2 0 0 1 18.6,36.57 11.83,11.83 0 0 1 20,30.9 Z M 50,12.25 h -4.33 v 6.28 l 1.06,15 H 49 l 1,-15 z m -4.18,24.37 v 4 h 4 v -4 z m 5.57,16.17 a 5.21,5.21 0 0 0 -2.22,3.59 5.56,5.56 0 0 0 0.2,2.36 14.78,14.78 0 0 0 1.68,3.39 12,12 0 0 0 -4.68,2.61 6.57,6.57 0 0 0 -2,3.89 7.31,7.31 0 0 0 6.46,8.24 8.29,8.29 0 0 0 3.78,-0.3 10,10 0 0 0 3.49,-2 17.51,17.51 0 0 0 3.13,4 l 2.3,-2.11 a 17.37,17.37 0 0 1 -3.15,-4.28 17.82,17.82 0 0 0 2.86,-5 l -2.92,-1.11 a 14.42,14.42 0 0 1 -1.63,3.24 l -3.43,-6.2 c 3.22,-1.22 5,-3 5.33,-5.31 a 5.05,5.05 0 0 0 -1,-3.91 5.42,5.42 0 0 0 -3.74,-2.11 5.79,5.79 0 0 0 -4.46,1.01 z M 74.75,35.47 h -4.84 l 1.3,-6.33 h 3.54 v -2.6 h -3 l 1.51,-7.48 h -2.64 l -1.52,7.48 h -5.49 l 1.52,-7.48 H 62.51 L 61,26.54 h -5.28 v 2.6 h 4.75 l -1.29,6.33 h -3.46 v 2.6 h 2.94 l -1.52,7.42 h 2.62 l 1.52,-7.42 h 5.47 l -1.5,7.42 h 2.62 l 1.51,-7.42 h 5.37 z m -1,11.79 -1.25,5.74 -2,14.05 2.06,0.44 3.91,-13.59 1.25,-5.78 z m -12,-11.79 1.29,-6.33 h 5.49 l -1.31,6.33 z M 57.13,55.29 A 2.86,2.86 0 0 1 57.6,57.44 3.47,3.47 0 0 1 56.76,59.28 7.91,7.91 0 0 1 54,61 l -1,-1.79 a 6,6 0 0 1 -0.65,-1.45 2.85,2.85 0 0 1 -0.11,-1.24 2.7,2.7 0 0 1 3.13,-2.3 2.57,2.57 0 0 1 1.76,1.07 z m -0.52,16.63 a 6.88,6.88 0 0 1 -2.55,1.85 5.22,5.22 0 0 1 -2.83,0.45 3.78,3.78 0 0 1 -3,-2.07 5.41,5.41 0 0 1 -0.7,-3.25 4.53,4.53 0 0 1 1.18,-2.35 10.56,10.56 0 0 1 3.57,-2.23 z M 30,39.19 a 5.34,5.34 0 0 1 -1.56,1.28 3.24,3.24 0 0 1 -1.54,0.43 2.52,2.52 0 0 1 -1.95,-1 4,4 0 0 1 -0.85,-2.74 8.06,8.06 0 0 1 0.42,-2.43 7.39,7.39 0 0 1 1.11,-2.25 4.92,4.92 0 0 1 1.43,-1.34 3.17,3.17 0 0 1 1.58,-0.42 2.8,2.8 0 0 1 2.16,1 3.84,3.84 0 0 1 0.88,2.71 A 7.74,7.74 0 0 1 31.2,37 6.79,6.79 0 0 1 30,39.19 Z"
       transform="translate(-7.89,-5)"
       id="path475"  fill="#000000" />
  </g>
  <text
     x="0"
     y="105.25"
     fill="#000000"
     font-size="5px"
     font-weight="bold"
     font-family="'Helvetica Neue', Helvetica, Arial-Unicode, Arial, Sans-serif"
     id="text479">Created by Simcoach Games</text>
  <text
     x="0"
     y="110.25"
     fill="#000000"
     font-size="5px"
     font-weight="bold"
     font-family="'Helvetica Neue', Helvetica, Arial-Unicode, Arial, Sans-serif"
     id="text481">from the Noun Project</text>
</svg>
