<?xml version="1.0" encoding="UTF-8" standalone="no"?>
<svg
   xmlns:dc="http://purl.org/dc/elements/1.1/"
   xmlns:cc="http://creativecommons.org/ns#"
   xmlns:rdf="http://www.w3.org/1999/02/22-rdf-syntax-ns#"
   xmlns:svg="http://www.w3.org/2000/svg"
   xmlns="http://www.w3.org/2000/svg"
   xmlns:sodipodi="http://sodipodi.sourceforge.net/DTD/sodipodi-0.dtd"
   xmlns:inkscape="http://www.inkscape.org/namespaces/inkscape"
   version="1.1"
   x="0px"
   y="0px"
   viewBox="0 0 493.894 493.894"
   style="enable-background:new 0 0 493.894 493.894;"
   xml:space="preserve"
   id="svg14"
   sodipodi:docname="document.svg"
   inkscape:version="0.92.3 (2405546, 2018-03-11)"><metadata
   id="metadata20"><rdf:RDF><cc:Work
       rdf:about=""><dc:format>image/svg+xml</dc:format><dc:type
         rdf:resource="http://purl.org/dc/dcmitype/StillImage" /></cc:Work></rdf:RDF></metadata><defs
   id="defs18" /><sodipodi:namedview
   pagecolor="#ffffff"
   bordercolor="#666666"
   borderopacity="1"
   objecttolerance="10"
   gridtolerance="10"
   guidetolerance="10"
   inkscape:pageopacity="0"
   inkscape:pageshadow="2"
   inkscape:window-width="1436"
   inkscape:window-height="906"
   id="namedview16"
   showgrid="false"
   inkscape:zoom="7.6978273"
   inkscape:cx="499.03722"
   inkscape:cy="254.43765"
   inkscape:window-x="2343"
   inkscape:window-y="174"
   inkscape:window-maximized="0"
   inkscape:current-layer="svg14" />
<g
   id="g12"
   transform="matrix(1.1325202,0,0,1,-32.721838,0)">
<path
   d="M 418.152,0 H 203.408 C 190.981,0 179.083,4.953 170.307,13.755 L 42.654,142.01 c -8.715,8.754 -13.602,20.597 -13.602,32.944 v 272.243 c 0,25.789 20.916,46.697 46.705,46.697 h 342.395 c 25.788,0 46.69,-20.908 46.69,-46.697 V 46.697 C 464.842,20.91 443.94,0 418.152,0 Z m 13.762,447.197 c 0,7.597 -6.175,13.769 -13.763,13.769 H 75.757 c -7.605,0 -13.781,-6.172 -13.781,-13.769 V 184.238 h 131.322 c 12.088,0 21.928,-9.839 21.928,-21.939 V 32.927 h 202.926 c 7.587,0 13.763,6.172 13.763,13.77 v 400.5 z"
   id="path2"
   inkscape:connector-curvature="0" />
<path
   d="M 339.277,254.455 H 154.646 c -13.632,0 -24.695,11.054 -24.695,24.695 0,13.641 11.063,24.695 24.695,24.695 h 184.631 c 13.636,0 24.695,-11.054 24.695,-24.695 0,-13.641 -11.06,-24.695 -24.695,-24.695 z"
   id="path4"
   inkscape:connector-curvature="0" />
<path
   d="m 339.277,172.139 h -69.388 c -13.635,0 -24.694,11.054 -24.694,24.694 0,13.642 11.059,24.695 24.694,24.695 h 69.388 c 13.636,0 24.695,-11.053 24.695,-24.695 -10e-4,-13.64 -11.06,-24.694 -24.695,-24.694 z"
   id="path6"
   inkscape:connector-curvature="0" />
<path
   d="m 339.277,89.825 h -69.388 c -13.635,0 -24.694,11.05 -24.694,24.695 0,13.641 11.059,24.694 24.694,24.694 h 69.388 c 13.636,0 24.695,-11.054 24.695,-24.694 -10e-4,-13.644 -11.06,-24.695 -24.695,-24.695 z"
   id="path8"
   inkscape:connector-curvature="0" />
<path
   d="M 339.277,347.421 H 154.646 c -13.632,0 -24.695,11.053 -24.695,24.694 0,13.641 11.063,24.695 24.695,24.695 h 184.631 c 13.636,0 24.695,-11.054 24.695,-24.695 0,-13.641 -11.06,-24.694 -24.695,-24.694 z"
   id="path10"
   inkscape:connector-curvature="0" />
</g>
</svg>