<?xml version="1.0" encoding="UTF-8" standalone="no"?>
<svg
   xmlns:dc="http://purl.org/dc/elements/1.1/"
   xmlns:cc="http://creativecommons.org/ns#"
   xmlns:rdf="http://www.w3.org/1999/02/22-rdf-syntax-ns#"
   xmlns:svg="http://www.w3.org/2000/svg"
   xmlns="http://www.w3.org/2000/svg"
   xmlns:sodipodi="http://sodipodi.sourceforge.net/DTD/sodipodi-0.dtd"
   xmlns:inkscape="http://www.inkscape.org/namespaces/inkscape"
   data-name="Layer 1"
   viewBox="0 0 65 65"
   x="0px"
   y="0px"
   version="1.1"
   id="svg323"
   sodipodi:docname="noun_Martial_Arts_3503069.svg"
   width="65"
   height="65"
   inkscape:version="1.0.1 (0767f8302a, 2020-10-17)">
  <metadata
     id="metadata329">
    <rdf:RDF>
      <cc:Work
         rdf:about="">
        <dc:format>image/svg+xml</dc:format>
        <dc:type
           rdf:resource="http://purl.org/dc/dcmitype/StillImage" />
        <dc:title>Artboard 22</dc:title>
      </cc:Work>
    </rdf:RDF>
  </metadata>
  <defs
     id="defs327" />
  <sodipodi:namedview
     pagecolor="#ffffff"
     bordercolor="#666666"
     borderopacity="1"
     objecttolerance="10"
     gridtolerance="10"
     guidetolerance="10"
     inkscape:pageopacity="0"
     inkscape:pageshadow="2"
     inkscape:window-width="2154"
     inkscape:window-height="1265"
     id="namedview325"
     showgrid="false"
     fit-margin-top="0"
     fit-margin-left="0"
     fit-margin-right="0"
     fit-margin-bottom="0"
     inkscape:zoom="8.9095454"
     inkscape:cx="33.556977"
     inkscape:cy="37.550774"
     inkscape:window-x="72"
     inkscape:window-y="27"
     inkscape:window-maximized="0"
     inkscape:current-layer="svg323" />
  <title
     id="title315">Artboard 22</title>
  <path
     d="M 62.5,35.931112 H 52.4388 l -2.6429,-11.6325 a 0.5063,0.5063 0 0 0 -1,0.0712 l -1.1123,13.9082 -14.5509,-20.102 9.7244,-13.4387997 11.98,6.7959997 a 8.9024,8.9024 0 0 1 4.3672,6.153 z M 41.9592,4.2372123 39.7654,2.9821123 H 25.2345 l -2.1937,1.2551 L 32.5,17.308712 Z M 15.7347,23.900512 a 0.5132,0.5132 0 0 1 0.4694,0.4693 l 1.4591,18.2248 h 10.1224 a 1.5354,1.5354 0 0 1 1.347,-0.8164 h 6.7348 a 1.5354,1.5354 0 0 1 1.347,0.8164 h 10.1224 l 0.2244,-2.745 -15.5,-21.4083 -9.9183,-13.7040997 -11.98,6.7959997 a 8.9024,8.9024 0 0 0 -4.3672,6.153 L 2.5,35.931112 h 10.0611 l 2.643,-11.6325 a 0.5178,0.5178 0 0 1 0.5306,-0.3981 z m 31.5612,22.5512 v -2.8369 h -9.8978 v 2.8369 z m -11.0307,0.6223 a 0.503,0.503 0 0 0 0.1124,-0.3161 v -3.4492 a 0.5116,0.5116 0 0 0 -0.51,-0.51 h -6.735 a 0.5116,0.5116 0 0 0 -0.51,0.51 v 3.4492 a 0.5036,0.5036 0 0 0 0.1123,0.3161 0.4882,0.4882 0 0 0 0.3979,0.194 h 6.7348 a 0.488,0.488 0 0 0 0.3976,-0.194 z m -18.5612,-0.6223 h 9.8979 v -2.8369 H 17.704 Z m 19.7042,1.02 6.1018,7.327 a 0.5123,0.5123 0 0 1 -0.0511,0.7141 l -3.8262,3.3982 a 0.5086,0.5086 0 0 1 -0.3369,0.1222 h -0.051 a 0.504,0.504 0 0 1 -0.357,-0.1938 l -6.3878,-8.3776 -6.3878,8.3776 a 0.504,0.504 0 0 1 -0.357,0.1938 h -0.051 a 0.5086,0.5086 0 0 1 -0.3369,-0.1222 l -3.8265,-3.3982 a 0.5123,0.5123 0 0 1 -0.0511,-0.7141 l 6.1021,-7.3267 h -10.02 l -3.9494,13.4592 a 164.5131,164.5131 0 0 0 37.7552,0 l -3.9491,-13.4592 z m -11.7756,10.3065 6.3574,-8.3368 v -1.153 h -2.8574 a 1.5079,1.5079 0 0 1 -0.3673,-0.0408 c -0.0408,-0.01 -0.0816,-0.0306 -0.1123,-0.0408 a 1.603,1.603 0 0 1 -0.2346,-0.0919 c 0,-0.01 -0.02,-0.01 -0.02,-0.01 l -5.8163,6.9694 z m 16.7858,-2.7041 -5.8163,-6.9694 a 0.0317,0.0317 0 0 0 -0.02,0.01 2.2211,2.2211 0 0 1 -0.2346,0.0919 c -0.0409,0.01 -0.0715,0.0306 -0.1124,0.0408 a 1.5066,1.5066 0 0 1 -0.3672,0.0408 H 33.01 v 1.153 l 6.3572,8.3368 z"
     id="path317"  fill="#ffffff" />
  <text
     x="-2"
     y="76.517899"
     fill="#ffffff"
     font-size="5px"
     font-weight="bold"
     font-family="'Helvetica Neue', Helvetica, Arial-Unicode, Arial, Sans-serif"
     id="text319">Created by Siipkan Creative</text>
  <text
     x="-2"
     y="81.517899"
     fill="#ffffff"
     font-size="5px"
     font-weight="bold"
     font-family="'Helvetica Neue', Helvetica, Arial-Unicode, Arial, Sans-serif"
     id="text321">from the Noun Project</text>
</svg>
