<?xml version="1.0" encoding="UTF-8" standalone="no"?>
<svg
   xmlns:dc="http://purl.org/dc/elements/1.1/"
   xmlns:cc="http://creativecommons.org/ns#"
   xmlns:rdf="http://www.w3.org/1999/02/22-rdf-syntax-ns#"
   xmlns:svg="http://www.w3.org/2000/svg"
   xmlns="http://www.w3.org/2000/svg"
   xmlns:sodipodi="http://sodipodi.sourceforge.net/DTD/sodipodi-0.dtd"
   xmlns:inkscape="http://www.inkscape.org/namespaces/inkscape"
   version="1.1"
   x="0px"
   y="0px"
   viewBox="0 0 95 95"
   xml:space="preserve"
   id="svg443"
   sodipodi:docname="noun_praise_384068.svg"
   width="95"
   height="95"
   inkscape:version="1.0.1 (0767f8302a, 2020-10-17)"><metadata
     id="metadata449"><rdf:RDF><cc:Work
         rdf:about=""><dc:format>image/svg+xml</dc:format><dc:type
           rdf:resource="http://purl.org/dc/dcmitype/StillImage" /><dc:title></dc:title></cc:Work></rdf:RDF></metadata><defs
     id="defs447" /><sodipodi:namedview
     pagecolor="#ffffff"
     bordercolor="#666666"
     borderopacity="1"
     objecttolerance="10"
     gridtolerance="10"
     guidetolerance="10"
     inkscape:pageopacity="0"
     inkscape:pageshadow="2"
     inkscape:window-width="2007"
     inkscape:window-height="1276"
     id="namedview445"
     showgrid="false"
     fit-margin-top="0"
     fit-margin-left="0"
     fit-margin-right="0"
     fit-margin-bottom="0"
     inkscape:zoom="8.064"
     inkscape:cx="45.209351"
     inkscape:cy="47.5"
     inkscape:window-x="72"
     inkscape:window-y="27"
     inkscape:window-maximized="0"
     inkscape:current-layer="svg443" /><g
     id="g437"
     transform="translate(-2.2953246,-1.5)"><path fill="#ffffff" 
       d="m 59,43 c 0.1,0.1 0.3,0.2 0.5,0.2 0,0 0.1,0 0.1,0 0.2,0 0.4,-0.2 0.5,-0.4 l 3.3,-8 C 63.5,34.6 63.5,34.4 63.3,34.2 63.2,34 63,33.9 62.8,33.9 H 51.9 c -0.3,0 -0.5,0.2 -0.6,0.4 -0.1,0.2 -0.1,0.5 0.1,0.7 z"
       id="path419" /><path fill="#ffffff" 
       d="m 39.8,42.8 c 0.1,0.2 0.3,0.3 0.5,0.4 0,0 0.1,0 0.1,0 0.2,0 0.3,-0.1 0.5,-0.2 l 7.5,-8 c 0.2,-0.2 0.2,-0.5 0.1,-0.7 -0.1,-0.2 -0.3,-0.4 -0.6,-0.4 H 37.1 c -0.2,0 -0.4,0.1 -0.5,0.3 -0.1,0.2 -0.1,0.4 -0.1,0.6 z"
       id="path421" /><path fill="#ffffff" 
       d="M 58.3,46.4 C 58.2,46.2 58,46.1 57.8,46.1 H 42.1 c -0.2,0 -0.4,0.1 -0.5,0.3 -0.1,0.2 -0.1,0.4 -0.1,0.6 l 7.8,19.2 c 0.1,0.2 0.3,0.4 0.6,0.4 0.3,0 0.5,-0.2 0.6,-0.4 L 58.3,47 c 0.1,-0.2 0.1,-0.4 0,-0.6 z"
       id="path423" /><path fill="#ffffff" 
       d="m 42.7,44.1 c 0.1,0.2 0.3,0.4 0.6,0.4 h 13.2 c 0.3,0 0.5,-0.2 0.6,-0.4 0.1,-0.2 0.1,-0.5 -0.1,-0.7 l -6.6,-7 c -0.2,-0.3 -0.7,-0.3 -0.9,0 l -6.6,7 c -0.2,0.1 -0.3,0.4 -0.2,0.7 z"
       id="path425" /><path fill="#ffffff" 
       d="M 71.5,46.1 H 61 c -0.3,0 -0.5,0.2 -0.6,0.4 l -8.2,20.2 c -0.1,0.3 0,0.6 0.2,0.8 0.1,0.1 0.2,0.1 0.3,0.1 0.2,0 0.3,-0.1 0.5,-0.2 L 72,47.2 C 72.2,47 72.2,46.7 72.1,46.5 72,46.3 71.8,46.1 71.5,46.1 Z"
       id="path427" /><path fill="#ffffff" 
       d="m 65.9,35.5 c -0.1,-0.2 -0.4,-0.3 -0.6,-0.2 -0.2,0 -0.4,0.2 -0.5,0.4 l -3.2,7.9 c -0.1,0.2 -0.1,0.4 0.1,0.6 0.1,0.2 0.3,0.3 0.5,0.3 h 9.5 c 0.2,0 0.5,-0.1 0.6,-0.4 0.1,-0.2 0.1,-0.5 -0.1,-0.7 z"
       id="path429" /><path fill="#ffffff" 
       d="M 39.5,46.5 C 39.4,46.3 39.2,46.1 38.9,46.1 H 28.3 c -0.3,0 -0.5,0.2 -0.6,0.4 -0.1,0.2 -0.1,0.5 0.1,0.7 l 18.8,20.2 c 0.1,0.1 0.3,0.2 0.5,0.2 0.1,0 0.2,0 0.3,-0.1 0.3,-0.2 0.4,-0.5 0.2,-0.8 z"
       id="path431" /><path fill="#ffffff" 
       d="m 37.7,44.4 c 0.2,0 0.4,-0.1 0.5,-0.3 0.1,-0.2 0.1,-0.4 0.1,-0.6 L 35,35.6 c -0.1,-0.2 -0.3,-0.4 -0.5,-0.4 -0.2,0 -0.5,0.1 -0.6,0.2 l -6.3,7.9 c -0.2,0.2 -0.2,0.5 -0.1,0.7 0.1,0.2 0.3,0.4 0.6,0.4 z"
       id="path433" /><path fill="#ffffff" 
       d="M 81.5,24.8 C 73,18.5 61.8,15 49.8,15 37.8,15 26.6,18.5 18.2,24.8 9.5,31.2 4.8,39.8 4.8,49 c 0,6.8 2.6,13.4 7.6,19 -1.1,2.3 -3,4.2 -5,5 -1.5,0.6 -2.4,1.7 -2.6,3 -0.1,1.4 0.6,2.8 2.2,3.8 3.2,2.1 10,2.7 18.9,-2 C 33.1,81.2 41.3,83 49.8,83 61.7,83 73,79.5 81.4,73.2 90.1,66.8 94.8,58.1 94.8,48.9 94.8,39.7 90.1,31.2 81.5,24.8 Z M 49.8,79 C 41.5,79 33.5,77.2 26.7,73.8 l -1,-0.5 -1,0.5 c -8.1,4.6 -13.5,3.8 -15.3,2.8 3.2,-1.5 5.9,-4.6 7.2,-8.4 L 17,67 16.1,66.1 C 11.3,61.1 8.7,55.1 8.7,49 8.7,32.5 27.1,19.1 49.6,19.1 c 22.5,0 41.2,13.4 41.2,29.9 0,16.5 -18.4,30 -41,30 z"
       id="path435" /></g><text
     x="-4.7906494"
     y="100"
     fill="#ffffff"
     font-size="5px"
     font-weight="bold"
     font-family="'Helvetica Neue', Helvetica, Arial-Unicode, Arial, Sans-serif"
     id="text439">Created by  Thays Malcher</text><text
     x="-4.7906494"
     y="105"
     fill="#ffffff"
     font-size="5px"
     font-weight="bold"
     font-family="'Helvetica Neue', Helvetica, Arial-Unicode, Arial, Sans-serif"
     id="text441">from the Noun Project</text></svg>
