<?xml version="1.0" encoding="UTF-8" standalone="no"?>
<svg
   xmlns:dc="http://purl.org/dc/elements/1.1/"
   xmlns:cc="http://creativecommons.org/ns#"
   xmlns:rdf="http://www.w3.org/1999/02/22-rdf-syntax-ns#"
   xmlns:svg="http://www.w3.org/2000/svg"
   xmlns="http://www.w3.org/2000/svg"
   xmlns:sodipodi="http://sodipodi.sourceforge.net/DTD/sodipodi-0.dtd"
   xmlns:inkscape="http://www.inkscape.org/namespaces/inkscape"
   version="1.1"
   x="0px"
   y="0px"
   viewBox="0 0 95 95"
   enable-background="new 0 0 100 100"
   xml:space="preserve"
   id="svg187"
   sodipodi:docname="noun_introduction_2044552.svg"
   width="95"
   height="95"
   inkscape:version="1.0.1 (0767f8302a, 2020-10-17)"><metadata
     id="metadata193"><rdf:RDF><cc:Work
         rdf:about=""><dc:format>image/svg+xml</dc:format><dc:type
           rdf:resource="http://purl.org/dc/dcmitype/StillImage" /><dc:title></dc:title></cc:Work></rdf:RDF></metadata><defs
     id="defs191" /><sodipodi:namedview
     pagecolor="#ffffff"
     bordercolor="#666666"
     borderopacity="1"
     objecttolerance="10"
     gridtolerance="10"
     guidetolerance="10"
     inkscape:pageopacity="0"
     inkscape:pageshadow="2"
     inkscape:window-width="1724"
     inkscape:window-height="1106"
     id="namedview189"
     showgrid="false"
     fit-margin-top="0"
     fit-margin-left="0"
     fit-margin-right="0"
     fit-margin-bottom="0"
     inkscape:zoom="4.032"
     inkscape:cx="62.371951"
     inkscape:cy="55.786864"
     inkscape:window-x="72"
     inkscape:window-y="27"
     inkscape:window-maximized="0"
     inkscape:current-layer="svg187" /><g
     id="g181"
     transform="translate(-2.5,-2.5005)"><path
       fill-rule="evenodd"
       clip-rule="evenodd"
       d="m 41.512,37.469 c 5.784,0 10.495,-4.708 10.495,-10.496 0,-5.788 -4.711,-10.497 -10.495,-10.497 -5.789,0 -10.497,4.708 -10.497,10.497 0,5.787 4.708,10.496 10.497,10.496 z m 0,-17.625 c 3.929,0 7.126,3.197 7.126,7.129 0,3.931 -3.197,7.128 -7.126,7.128 -3.934,0 -7.129,-3.197 -7.129,-7.128 0,-3.931 3.195,-7.129 7.129,-7.129 z"
       id="path169" fill="#ffffff" /><path
       fill-rule="evenodd"
       clip-rule="evenodd"
       d="m 88.603,12.247 c -3.809,-2.52 -8.84,-3.908 -14.168,-3.908 -5.324,0 -10.354,1.388 -14.164,3.907 -4.023,2.662 -6.241,6.27 -6.241,10.16 0,3.514 1.808,6.791 5.121,9.349 l -3.211,6.926 c -0.193,-0.042 -0.383,-0.09 -0.585,-0.12 l -7.442,-1.098 c -0.527,-0.077 -1.063,0.099 -1.438,0.478 l -5.507,5.521 -5.5,-5.521 c -0.372,-0.374 -0.898,-0.552 -1.42,-0.479 l -7.522,1.026 c -8.813,1.197 -9.259,14.671 -9.118,19.663 H 6.841 c -0.93,0 -1.684,0.753 -1.684,1.683 V 68.3 c 0,0.931 0.754,1.684 1.684,1.684 H 8.22 v 19.994 c 0,0.929 0.755,1.684 1.684,1.684 h 65.243 c 0.93,0 1.684,-0.754 1.684,-1.684 V 69.983 h 1.378 c 0.931,0 1.685,-0.753 1.685,-1.684 v -8.466 c 0,-0.93 -0.754,-1.683 -1.685,-1.683 H 64.311 c 0.146,-3.713 0.002,-12.047 -3.739,-16.593 l 9.446,-5.418 c 1.466,0.218 2.95,0.328 4.417,0.328 5.331,0 10.359,-1.386 14.168,-3.905 4.024,-2.659 6.24,-6.266 6.24,-10.155 0,-3.891 -2.216,-7.499 -6.24,-10.16 z M 73.461,88.294 H 11.588 V 69.983 H 73.461 Z M 76.524,66.616 H 75.146 9.903 8.524 v -5.099 h 10.653 1.747 14.468 11.848 12.892 2.388 14.005 v 5.099 z M 60.927,58.15 H 60.132 47.24 c -0.864,0 -1.593,-0.796 -1.593,-1.738 0,-0.923 0.667,-1.735 1.421,-1.738 h 7.314 c 0.445,0 0.875,-0.177 1.192,-0.494 0.313,-0.317 0.491,-0.746 0.491,-1.192 l -0.007,-2.986 c -10e-4,-0.929 -0.755,-1.681 -1.684,-1.681 -0.001,0 -0.001,0 -0.003,0 -0.931,0.002 -1.684,0.757 -1.68,1.687 l 0.003,1.298 h -5.633 c -2.639,0.01 -4.782,2.3 -4.782,5.105 0,0.613 0.122,1.193 0.315,1.738 h -2.561 c 0.193,-0.545 0.315,-1.125 0.315,-1.738 0,-2.805 -2.145,-5.095 -4.787,-5.105 h -7.203 l 0.002,-1.298 c 0.003,-0.929 -0.75,-1.685 -1.68,-1.687 -0.001,0 -0.003,0 -0.004,0 -0.929,0 -1.682,0.751 -1.684,1.681 l -0.006,2.986 c 0,0.446 0.177,0.875 0.493,1.192 0.316,0.317 0.744,0.494 1.19,0.494 h 8.885 c 0.76,0.003 1.427,0.814 1.427,1.738 0,0.942 -0.73,1.738 -1.593,1.738 H 20.925 20.787 C 20.689,53.962 20.98,42.638 26.98,41.824 l 6.691,-0.913 6.102,6.123 c 0.317,0.316 0.745,0.495 1.192,0.495 0,0 0,0 10e-4,0 0.447,0 0.876,-0.177 1.191,-0.495 l 6.1,-6.116 6.291,0.928 c -0.095,0.554 0.082,1.128 0.511,1.52 0.317,0.292 0.726,0.443 1.137,0.443 0.288,0 0.577,-0.073 0.838,-0.223 l 0.546,-0.313 c 3.373,3.312 3.467,11.478 3.347,14.877 z M 86.746,29.753 c -3.264,2.157 -7.635,3.345 -12.312,3.345 -1.482,0 -2.982,-0.127 -4.459,-0.377 -0.385,-0.065 -0.78,0.006 -1.118,0.199 l -8.907,5.11 2.844,-6.129 c 0.35,-0.757 0.091,-1.66 -0.608,-2.118 -3.088,-2.017 -4.788,-4.638 -4.788,-7.378 0,-2.724 1.68,-5.333 4.73,-7.35 3.265,-2.159 7.635,-3.349 12.307,-3.349 4.674,0 9.047,1.188 12.311,3.349 3.052,2.016 4.73,4.626 4.73,7.35 0,2.722 -1.679,5.332 -4.73,7.348 z"
       id="path171" fill="#ffffff" /><path
       fill-rule="evenodd"
       clip-rule="evenodd"
       d="m 20.358,84.508 h 44.328 c 0.931,0 1.684,-0.752 1.684,-1.683 v -7.374 c 0,-0.93 -0.753,-1.683 -1.684,-1.683 H 20.358 c -0.932,0 -1.685,0.752 -1.685,1.683 v 7.374 c 0.001,0.931 0.754,1.683 1.685,1.683 z m 1.684,-7.374 h 40.961 v 4.007 H 22.042 Z"
       id="path173" fill="#ffffff" /><path
       fill-rule="evenodd"
       clip-rule="evenodd"
       d="m 67.432,20.07 c -1.242,0 -2.25,1.01 -2.25,2.245 0,1.236 1.008,2.251 2.25,2.251 1.237,0 2.246,-1.015 2.246,-2.251 0,-1.235 -1.009,-2.245 -2.246,-2.245 z"
       id="path175" fill="#ffffff" /><path
       fill-rule="evenodd"
       clip-rule="evenodd"
       d="m 74.751,20.07 c -1.235,0 -2.243,1.01 -2.243,2.245 0,1.236 1.008,2.251 2.243,2.251 1.242,0 2.251,-1.015 2.251,-2.251 0,-1.235 -1.009,-2.245 -2.251,-2.245 z"
       id="path177" fill="#ffffff" /><path
       fill-rule="evenodd"
       clip-rule="evenodd"
       d="m 81.713,20.07 c -1.234,0 -2.244,1.01 -2.244,2.245 0,1.236 1.01,2.251 2.244,2.251 1.236,0 2.25,-1.015 2.25,-2.251 0,-1.235 -1.014,-2.245 -2.25,-2.245 z"
       id="path179" fill="#ffffff" /></g><text
     x="-5.1570001"
     y="106.661"
     fill="#ffffff"
     font-size="5px"
     font-weight="bold"
     font-family="'Helvetica Neue', Helvetica, Arial-Unicode, Arial, Sans-serif"
     id="text183">Created by Rakhmat Setiawan</text><text
     x="-5.1570001"
     y="111.661"
     fill="#ffffff"
     font-size="5px"
     font-weight="bold"
     font-family="'Helvetica Neue', Helvetica, Arial-Unicode, Arial, Sans-serif"
     id="text185">from the Noun Project</text></svg>
