<?xml version="1.0" encoding="UTF-8" standalone="no"?>
<svg
   xmlns:dc="http://purl.org/dc/elements/1.1/"
   xmlns:cc="http://creativecommons.org/ns#"
   xmlns:rdf="http://www.w3.org/1999/02/22-rdf-syntax-ns#"
   xmlns:svg="http://www.w3.org/2000/svg"
   xmlns="http://www.w3.org/2000/svg"
   xmlns:sodipodi="http://sodipodi.sourceforge.net/DTD/sodipodi-0.dtd"
   xmlns:inkscape="http://www.inkscape.org/namespaces/inkscape"
   version="1.1"
   x="0px"
   y="0px"
   viewBox="0 0 85 85"
   xml:space="preserve"
   id="svg389"
   sodipodi:docname="noun_people_1814869.svg"
   width="85"
   height="85"
   inkscape:version="1.0.1 (0767f8302a, 2020-10-17)"><metadata
     id="metadata395"><rdf:RDF><cc:Work
         rdf:about=""><dc:format>image/svg+xml</dc:format><dc:type
           rdf:resource="http://purl.org/dc/dcmitype/StillImage" /><dc:title></dc:title></cc:Work></rdf:RDF></metadata><defs
     id="defs393" /><sodipodi:namedview
     pagecolor="#ffffff"
     bordercolor="#666666"
     borderopacity="1"
     objecttolerance="10"
     gridtolerance="10"
     guidetolerance="10"
     inkscape:pageopacity="0"
     inkscape:pageshadow="2"
     inkscape:window-width="2006"
     inkscape:window-height="1172"
     id="namedview391"
     showgrid="false"
     fit-margin-top="0"
     fit-margin-left="0"
     fit-margin-right="0"
     fit-margin-bottom="0"
     inkscape:zoom="8.064"
     inkscape:cx="40.112802"
     inkscape:cy="48.9"
     inkscape:window-x="72"
     inkscape:window-y="27"
     inkscape:window-maximized="0"
     inkscape:current-layer="svg389" /><g
     id="g383"
     transform="translate(-7.4375103,-7.6)"><circle
       cx="50"
       cy="29.4"
       r="8.8000002"
       id="circle371"  fill="#ffffff" /><path fill="#ffffff" 
       d="m 26.2,32.1 c 0,0 0,0 0,0 -0.3,-0.3 -0.5,-0.5 -0.8,-0.7 L 16.5,22.5 C 15,21 12.6,20.9 11.1,22.4 9.5,23.9 9.5,26.3 11,27.9 l 11.7,11.8 v 35.9 c 0,2.1 1.8,3.9 3.9,3.9 2.1,0 3.8,-1.7 3.8,-3.8 V 63.9 c 0,-0.6 0.4,-1.2 1.1,-1.2 0.6,0 1.1,0.5 1.1,1.2 v 11.6 c 0,2.1 1.8,3.9 4,3.9 0.9,0 1.8,-0.3 2.4,-0.9 v -31 L 28,36.3 c -1.2,-1.1 -1.8,-2.6 -1.8,-4.2 z"
       id="path373" /><path fill="#ffffff" 
       d="m 88.9,22.4 c -1.5,-1.5 -3.9,-1.5 -5.4,0 l -9,9 c -0.2,0.2 -0.5,0.5 -0.8,0.7 0,1.6 -0.6,3.1 -1.8,4.3 L 60.8,47.5 v 31 c 0.8,0.6 1.6,0.9 2.6,0.9 2.1,0 3.8,-1.7 3.8,-3.8 V 63.9 c 0,-0.6 0.4,-1.2 1.1,-1.2 0.6,0 1.1,0.5 1.1,1.2 v 11.6 c 0,2.1 1.8,3.9 3.9,3.9 2.1,0 3.8,-1.7 3.8,-3.8 v -36 L 88.9,27.8 c 1.4,-1.5 1.5,-3.9 0,-5.4 z"
       id="path375" /><path fill="#ffffff" 
       d="M 70.6,29.5 C 69.1,28 66.7,28 65.2,29.5 l -9,9 c -3.4,3.4 -9,3.4 -12.4,0 L 34.9,29.6 C 33.4,28.1 31,28 29.5,29.5 27.9,31 27.8,33.4 29.3,35 L 41,46.8 v 35.9 c 0,2.1 1.9,3.9 4,3.9 2.1,0 3.9,-1.7 3.9,-3.8 V 71 c 0,-0.6 0.4,-1.2 1,-1.2 0.6,0 1,0.5 1,1.2 v 11.6 c 0,2.1 1.9,3.9 4,3.9 2.1,0 3.9,-1.7 3.9,-3.8 v -36 L 70.5,34.9 c 1.5,-1.5 1.5,-4 0.1,-5.4 z"
       id="path377" /><path fill="#ffffff" 
       d="m 26.8,29.7 c 0.3,-0.7 0.8,-1.3 1.3,-1.8 1.1,-1 2.5,-1.6 4,-1.6 1.6,0 3.1,0.6 4.3,1.8 l 1,1 c 1,-0.9 1.8,-2 2.3,-3.2 0.1,-0.2 0.2,-0.4 0.2,-0.6 0.3,-0.9 0.5,-1.8 0.5,-2.8 0,-4.8 -3.9,-8.8 -8.8,-8.8 -4.8,0 -8.8,3.9 -8.8,8.8 0.1,2.9 1.6,5.6 4,7.2 z"
       id="path379" /><path fill="#ffffff" 
       d="m 60.3,25.8 c 0.5,1.2 1.3,2.3 2.3,3.2 l 1,-1 c 1.1,-1.1 2.6,-1.7 4.2,-1.7 1.6,0 3.1,0.6 4.2,1.7 0.5,0.5 0.9,1.1 1.2,1.7 2.3,-1.6 3.9,-4.2 3.9,-7.3 0,-4.8 -3.9,-8.8 -8.8,-8.8 -4.8,0 -8.8,3.9 -8.8,8.8 0,1 0.2,1.9 0.5,2.8 0.1,0.2 0.2,0.4 0.3,0.6 z"
       id="path381" /></g><text
     x="-9.8871975"
     y="101.4"
     fill="#ffffff"
     font-size="5px"
     font-weight="bold"
     font-family="'Helvetica Neue', Helvetica, Arial-Unicode, Arial, Sans-serif"
     id="text385">Created by Musmellow</text><text
     x="-9.8871975"
     y="106.4"
     fill="#ffffff"
     font-size="5px"
     font-weight="bold"
     font-family="'Helvetica Neue', Helvetica, Arial-Unicode, Arial, Sans-serif"
     id="text387">from the Noun Project</text></svg>
