<?xml version="1.0" encoding="UTF-8" standalone="no"?>
<svg
   xmlns:dc="http://purl.org/dc/elements/1.1/"
   xmlns:cc="http://creativecommons.org/ns#"
   xmlns:rdf="http://www.w3.org/1999/02/22-rdf-syntax-ns#"
   xmlns:svg="http://www.w3.org/2000/svg"
   xmlns="http://www.w3.org/2000/svg"
   xmlns:sodipodi="http://sodipodi.sourceforge.net/DTD/sodipodi-0.dtd"
   xmlns:inkscape="http://www.inkscape.org/namespaces/inkscape"
   viewBox="0 0 70.000001 70.000001"
   x="0px"
   y="0px"
   version="1.1"
   id="svg161"
   sodipodi:docname="noun_folding_phone_3512378.svg"
   width="70"
   height="70"
   inkscape:version="1.0.1 (0767f8302a, 2020-10-17)">
  <metadata
     id="metadata167">
    <rdf:RDF>
      <cc:Work
         rdf:about="">
        <dc:format>image/svg+xml</dc:format>
        <dc:type
           rdf:resource="http://purl.org/dc/dcmitype/StillImage" />
        <dc:title>a</dc:title>
      </cc:Work>
    </rdf:RDF>
  </metadata>
  <defs
     id="defs165" />
  <sodipodi:namedview
     pagecolor="#ffffff"
     bordercolor="#666666"
     borderopacity="1"
     objecttolerance="10"
     gridtolerance="10"
     guidetolerance="10"
     inkscape:pageopacity="0"
     inkscape:pageshadow="2"
     inkscape:window-width="1883"
     inkscape:window-height="1144"
     id="namedview163"
     showgrid="false"
     fit-margin-top="0"
     fit-margin-left="0"
     fit-margin-right="0"
     fit-margin-bottom="0"
     inkscape:zoom="6.3"
     inkscape:cx="34.162491"
     inkscape:cy="24.72484"
     inkscape:window-x="72"
     inkscape:window-y="27"
     inkscape:window-maximized="0"
     inkscape:current-layer="svg161" />
  <title
     id="title105">a</title>
  <g
     data-name="19 Folding Phone"
     id="g155"
     transform="translate(3.002858,2.9999024)">
    <path fill="#ffffff" 
       d="m 5.707,24.793 a 1,1 0 0 0 -1.414,1.414 l 7,7 a 1,1 0 0 0 1.414,-1.414 z"
       id="path107" />
    <path fill="#ffffff" 
       d="m 5.707,31.793 a 1,1 0 0 0 -1.414,1.414 l 4.25,4.25 a 1,1 0 0 0 1.414,-1.414 z"
       id="path109" />
    <path fill="#ffffff" 
       d="m 11.29,38.29 a 1,1 0 1 0 1.42,0 1.05,1.05 0 0 0 -1.42,0 z"
       id="path111" />
    <path fill="#ffffff" 
       d="m 52.707,24.793 a 1,1 0 0 0 -1.414,1.414 l 7,7 a 1,1 0 0 0 1.414,-1.414 z"
       id="path113" />
    <path fill="#ffffff" 
       d="m 54.457,34.793 a 1,1 0 0 0 -1.414,1.414 l 4.25,4.25 a 1,1 0 0 0 1.414,-1.414 z"
       id="path115" />
    <path fill="#ffffff" 
       d="m 52.46,32.29 a 1,1 0 0 0 -1.71,0.71 1.033,1.033 0 0 0 0.29,0.71 1.0040916,1.0040916 0 0 0 1.42,-1.42 z"
       id="path117" />
    <path fill="#ffffff" 
       d="m 22,19 h 3 a 1,1 0 0 0 0,-2 h -3 a 1,1 0 0 0 0,2 z"
       id="path119" />
    <path fill="#ffffff" 
       d="m 28.71,17.29 a 1.058,1.058 0 0 0 -1.42,0 A 1.029,1.029 0 0 0 27,18 a 1,1 0 1 0 2,0 1.029,1.029 0 0 0 -0.29,-0.71 z"
       id="path121" />
    <path fill="#ffffff" 
       d="M 39,19 A 0.99,0.99 0 1 0 38.29,18.71 1.052,1.052 0 0 0 39,19 Z"
       id="path123" />
    <path fill="#ffffff" 
       d="M 41.29,17.29 A 1.029,1.029 0 0 0 41,18 a 1,1 0 1 0 2,0 1.029,1.029 0 0 0 -0.29,-0.71 1.047,1.047 0 0 0 -1.42,0 z"
       id="path125" />
    <path fill="#ffffff" 
       d="M 61.515,15.329 50.228,10.814 A 13.371,13.371 0 0 0 46,10 H 18 a 13.382,13.382 0 0 0 -4.229,0.814 L 2.486,15.329 A 4.209,4.209 0 0 0 0,19 V 51.609 A 2.233,2.233 0 0 0 2.215,54 2.683,2.683 0 0 0 3.172,53.817 L 14.41,50.706 A 0.977,0.977 0 0 0 14.51,50.671 11.432,11.432 0 0 1 18,50 h 28 a 11.432,11.432 0 0 1 3.486,0.671 0.977,0.977 0 0 0 0.1,0.035 l 11.238,3.111 a 2.683,2.683 0 0 0 0.957,0.183 2.141,2.141 0 0 0 1.618,-0.706 2.481,2.481 0 0 0 0.6,-1.685 V 19 A 4.209,4.209 0 0 0 61.515,15.329 Z M 46,45 H 18 v -4 a 1,1 0 0 0 -2,0 v 4 a 0.935,0.935 0 0 0 0.035,0.175 16.393,16.393 0 0 0 -3.134,0.76 L 2,48.713 V 20.688 L 15.629,15.457 A 8.8,8.8 0 0 1 18,15 h 28 v 7 a 1,1 0 0 0 2,0 v -6.664 c 0.145,0.042 0.28,0.084 0.385,0.126 L 62,20.688 V 48.713 L 51.1,45.935 A 16.493,16.493 0 0 0 46,45 Z M 3.229,17.186 14.514,12.671 A 11.432,11.432 0 0 1 18,12 h 28 a 11.42,11.42 0 0 1 3.485,0.671 l 11.287,4.515 a 2.238,2.238 0 0 1 1.145,1.327 L 49.115,13.6 A 10.565,10.565 0 0 0 46,13 H 18 a 10.536,10.536 0 0 0 -3.1,0.6 L 2.083,18.513 A 2.24,2.24 0 0 1 3.229,17.186 Z M 62,51.609 a 0.558,0.558 0 0 1 -0.087,0.35 c -0.017,0.02 -0.055,0.117 -0.4,-0.02 a 0.984,0.984 0 0 0 -0.1,-0.036 L 50.178,48.793 A 13.458,13.458 0 0 0 46,48 H 18 a 13.458,13.458 0 0 0 -4.175,0.793 L 2.59,51.9 A 0.984,0.984 0 0 0 2.49,51.936 0.753,0.753 0 0 1 2.215,52 C 2.156,52 2,52 2,51.609 V 50.777 L 13.447,47.859 A 0.792,0.792 0 0 0 13.552,47.827 14.436,14.436 0 0 1 18,47 h 28 a 14.436,14.436 0 0 1 4.448,0.827 0.792,0.792 0 0 0 0.1,0.032 L 62,50.777 Z"
       id="path127" />
    <path fill="#ffffff" 
       d="m 16.29,36.29 a 1.014,1.014 0 0 0 0,1.42 1,1 0 1 0 0,-1.42 z"
       id="path129" />
    <path fill="#ffffff" 
       d="m 46.29,25.29 a 1,1 0 1 0 1.42,0 1.05,1.05 0 0 0 -1.42,0 z"
       id="path131" />
    <path fill="#ffffff" 
       d="m 17,17 a 1,1 0 0 0 -1,1 v 15 a 1,1 0 0 0 2,0 V 18 a 1,1 0 0 0 -1,-1 z"
       id="path133" />
    <path fill="#ffffff" 
       d="m 47,29 a 1,1 0 0 0 -1,1 v 12 a 1,1 0 0 0 2,0 V 30 a 1,1 0 0 0 -1,-1 z"
       id="path135" />
    <path fill="#ffffff" 
       d="m 25,37 h -2 a 2,2 0 0 0 -2,2 v 2 a 2,2 0 0 0 2,2 h 2 a 2,2 0 0 0 2,-2 v -2 a 2,2 0 0 0 -2,-2 z m 0,4 h -2 v -2 h 2 z"
       id="path137" />
    <path fill="#ffffff" 
       d="m 33,37 h -2 a 2,2 0 0 0 -2,2 v 2 a 2,2 0 0 0 2,2 h 2 a 2,2 0 0 0 2,-2 v -2 a 2,2 0 0 0 -2,-2 z m 0,4 h -2 v -2 h 2 z"
       id="path139" />
    <path fill="#ffffff" 
       d="m 41,37 h -2 a 2,2 0 0 0 -2,2 v 2 a 2,2 0 0 0 2,2 h 2 a 2,2 0 0 0 2,-2 v -2 a 2,2 0 0 0 -2,-2 z m 0,4 h -2 v -2 h 2 z"
       id="path141" />
    <path fill="#ffffff" 
       d="m 25,29 h -2 a 2,2 0 0 0 -2,2 v 2 a 2,2 0 0 0 2,2 h 2 a 2,2 0 0 0 2,-2 v -2 a 2,2 0 0 0 -2,-2 z m 0,4 h -2 v -2 h 2 z"
       id="path143" />
    <path fill="#ffffff" 
       d="m 33,29 h -2 a 2,2 0 0 0 -2,2 v 2 a 2,2 0 0 0 2,2 h 2 a 2,2 0 0 0 2,-2 v -2 a 2,2 0 0 0 -2,-2 z m 0,4 h -2 v -2 h 2 z"
       id="path145" />
    <path fill="#ffffff" 
       d="m 41,29 h -2 a 2,2 0 0 0 -2,2 v 2 a 2,2 0 0 0 2,2 h 2 a 2,2 0 0 0 2,-2 v -2 a 2,2 0 0 0 -2,-2 z m 0,4 h -2 v -2 h 2 z"
       id="path147" />
    <path fill="#ffffff" 
       d="m 25,21 h -2 a 2,2 0 0 0 -2,2 v 2 a 2,2 0 0 0 2,2 h 2 a 2,2 0 0 0 2,-2 v -2 a 2,2 0 0 0 -2,-2 z m 0,4 h -2 v -2 h 2 z"
       id="path149" />
    <path fill="#ffffff" 
       d="m 33,21 h -2 a 2,2 0 0 0 -2,2 v 2 a 2,2 0 0 0 2,2 h 2 a 2,2 0 0 0 2,-2 v -2 a 2,2 0 0 0 -2,-2 z m 0,4 h -2 v -2 h 2 z"
       id="path151" />
    <path fill="#ffffff" 
       d="m 41,21 h -2 a 2,2 0 0 0 -2,2 v 2 a 2,2 0 0 0 2,2 h 2 a 2,2 0 0 0 2,-2 v -2 a 2,2 0 0 0 -2,-2 z m 0,4 h -2 v -2 h 2 z"
       id="path153" />
  </g>
  <text
     x="-11.730324"
     y="83.426918"
     fill="#ffffff"
     font-size="5px"
     font-weight="bold"
     font-family="'Helvetica Neue', Helvetica, Arial-Unicode, Arial, Sans-serif"
     id="text157">Created by Berkah Icon</text>
  <text
     x="-11.730324"
     y="88.426918"
     fill="#ffffff"
     font-size="5px"
     font-weight="bold"
     font-family="'Helvetica Neue', Helvetica, Arial-Unicode, Arial, Sans-serif"
     id="text159">from the Noun Project</text>
</svg>
