<?xml version="1.0" encoding="UTF-8" standalone="no"?>
<svg
   xmlns:dc="http://purl.org/dc/elements/1.1/"
   xmlns:cc="http://creativecommons.org/ns#"
   xmlns:rdf="http://www.w3.org/1999/02/22-rdf-syntax-ns#"
   xmlns:svg="http://www.w3.org/2000/svg"
   xmlns="http://www.w3.org/2000/svg"
   xmlns:sodipodi="http://sodipodi.sourceforge.net/DTD/sodipodi-0.dtd"
   xmlns:inkscape="http://www.inkscape.org/namespaces/inkscape"
   viewBox="0 0 90 90"
   x="0px"
   y="0px"
   version="1.1"
   id="svg86"
   sodipodi:docname="noun_D20_2453700.svg"
   width="90"
   height="90"
   inkscape:version="1.0.1 (0767f8302a, 2020-10-17)">
  <metadata
     id="metadata92">
    <rdf:RDF>
      <cc:Work
         rdf:about="">
        <dc:format>image/svg+xml</dc:format>
        <dc:type
           rdf:resource="http://purl.org/dc/dcmitype/StillImage" />
        <dc:title>Artboard 6</dc:title>
      </cc:Work>
    </rdf:RDF>
  </metadata>
  <defs
     id="defs90" />
  <sodipodi:namedview
     pagecolor="#ffffff"
     bordercolor="#666666"
     borderopacity="1"
     objecttolerance="10"
     gridtolerance="10"
     guidetolerance="10"
     inkscape:pageopacity="0"
     inkscape:pageshadow="2"
     inkscape:window-width="1960"
     inkscape:window-height="1190"
     id="namedview88"
     showgrid="false"
     fit-margin-top="0"
     fit-margin-left="0"
     fit-margin-right="0"
     fit-margin-bottom="0"
     inkscape:zoom="2.8510545"
     inkscape:cx="66.813477"
     inkscape:cy="66.022787"
     inkscape:window-x="72"
     inkscape:window-y="27"
     inkscape:window-maximized="0"
     inkscape:current-layer="svg86" />
  <title
     id="title78">Artboard 6</title>
  <path
     d="m 87.90785,57.372473 -14,-42 a 2,2 0 0 0 -1.33,-1.29 l -37,-11.0003 a 2,2 0 0 0 -2,0.51 L 2.5778501,34.592473 a 2,2 0 0 0 -0.48,2.06 l 14.9999999,44 a 2,2 0 0 0 1.64,1.35 l 36,5 h 0.27 a 2,2 0 0 0 1.31,-0.49 l 31,-27 a 2,2 0 0 0 0.59,-2.14 z m -67.46,20.63 7.16,-34.95 33.08,34 z m 52.82,-50.31 -44.93,11.92 7.06,-31.7500003 z m -47,12.12 -19.0999999,-4.15 25.7199999,-25.66 z m 36.12,36.11 -33.47,-34.39 45.47,-12.07 0.12,0.35 -12,46 z m 10.62,-50.63 -30.52,-16.0003 28,8.3100003 z m -66.3399999,12.31 19.1599999,4.17 -6.66,32.49 z m 47.7099999,45.29 -22.87,-3.17 27.23,-0.62 z m 10.85,-9.44 10.44,-40.16 8,24.08 z m -27.58,-41.95 a 7,7 0 0 1 1.85,-3.82 16.93,16.93 0 0 0 1.84,-2.58 2.44,2.44 0 0 0 0.07,-2.1 2.67,2.67 0 0 0 -1.13,-1.28 2.34,2.34 0 0 0 -1.74,-0.21 c -0.9,0.2 -1.38,0.64 -1.46,1.31 a 4.35,4.35 0 0 0 0.36,1.74 l -3,0.7 a 6,6 0 0 1 -0.42,-3 c 0.26,-1.51 1.4,-2.47 3.4,-2.91 a 6.62,6.62 0 0 1 4.21,0.31 5.27,5.27 0 0 1 2.73,2.71 3.82,3.82 0 0 1 0.21,2.86 7.46,7.46 0 0 1 -1.35,2.28 l -0.85,1.08 q -0.81,1 -1.08,1.47 a 2.81,2.81 0 0 0 -0.28,0.94 l 6.62,-1.74 1.11,2.45 -10.64,2.89 a 6.75,6.75 0 0 1 -0.45,-3.1 z m 14.93,-13.69 a 13,13 0 0 1 3.43,4.55 10.48,10.48 0 0 1 1.47,5.28 c -0.1,1.4 -1.06,2.36 -2.87,2.85 a 5.11,5.11 0 0 1 -4.76,-0.82 13,13 0 0 1 -3.53,-4.93 9.78,9.78 0 0 1 -1.2,-5.25 c 0.2,-1.3 1.19,-2.14 3,-2.53 a 5.18,5.18 0 0 1 4.46,0.85 z m -1.26,9.66 a 2.13,2.13 0 0 0 2.25,0.81 1.29,1.29 0 0 0 1,-1.66 13.72,13.72 0 0 0 -1.33,-3.57 15,15 0 0 0 -2.06,-3.34 2.09,2.09 0 0 0 -2.1,-0.71 1.24,1.24 0 0 0 -1.07,1.46 12.67,12.67 0 0 0 1.23,3.54 15.33,15.33 0 0 0 2.08,3.47 z"
     id="path80"  fill="#ffffff" />
  <text
     x="-5.983212"
     y="108.00494"
     fill="#ffffff"
     font-size="5px"
     font-weight="bold"
     font-family="'Helvetica Neue', Helvetica, Arial-Unicode, Arial, Sans-serif"
     id="text82">Created by Lonnie Tapscott</text>
  <text
     x="-5.983212"
     y="113.00494"
     fill="#ffffff"
     font-size="5px"
     font-weight="bold"
     font-family="'Helvetica Neue', Helvetica, Arial-Unicode, Arial, Sans-serif"
     id="text84">from the Noun Project</text>
</svg>
