<?xml version="1.0" encoding="UTF-8" standalone="no"?>
<svg
   xmlns:dc="http://purl.org/dc/elements/1.1/"
   xmlns:cc="http://creativecommons.org/ns#"
   xmlns:rdf="http://www.w3.org/1999/02/22-rdf-syntax-ns#"
   xmlns:svg="http://www.w3.org/2000/svg"
   xmlns="http://www.w3.org/2000/svg"
   xmlns:sodipodi="http://sodipodi.sourceforge.net/DTD/sodipodi-0.dtd"
   xmlns:inkscape="http://www.inkscape.org/namespaces/inkscape"
   version="1.1"
   x="0px"
   y="0px"
   viewBox="0 0 95 95"
   enable-background="new 0 0 100 100"
   xml:space="preserve"
   id="svg307"
   sodipodi:docname="noun_Map_2221287.svg"
   width="95"
   height="95"
   inkscape:version="1.0.1 (0767f8302a, 2020-10-17)"><metadata
     id="metadata313"><rdf:RDF><cc:Work
         rdf:about=""><dc:format>image/svg+xml</dc:format><dc:type
           rdf:resource="http://purl.org/dc/dcmitype/StillImage" /><dc:title></dc:title></cc:Work></rdf:RDF></metadata><defs
     id="defs311" /><sodipodi:namedview
     pagecolor="#ffffff"
     bordercolor="#666666"
     borderopacity="1"
     objecttolerance="10"
     gridtolerance="10"
     guidetolerance="10"
     inkscape:pageopacity="0"
     inkscape:pageshadow="2"
     inkscape:window-width="2129"
     inkscape:window-height="1230"
     id="namedview309"
     showgrid="false"
     fit-margin-top="0"
     fit-margin-left="0"
     fit-margin-right="0"
     fit-margin-bottom="0"
     inkscape:zoom="8.064"
     inkscape:cx="44.528"
     inkscape:cy="51.505"
     inkscape:window-x="72"
     inkscape:window-y="27"
     inkscape:window-maximized="0"
     inkscape:current-layer="svg307" /><g
     id="g301"
     transform="translate(-2.501,-2.498)"><path
       d="m 91.178,32.295 h -44.24 c 0.771,-1.192 1.521,-2.366 2.264,-3.558 l 0.529,-0.848 c 0.147,-0.241 0.283,-0.482 0.41,-0.725 1.772,-3.365 1.682,-6.977 -0.262,-10.445 -1.977,-3.525 -5.299,-5.503 -9.605,-5.717 -0.082,-0.005 -0.163,-0.007 -0.242,-0.007 l -0.182,0.003 c -0.463,0.011 -0.896,0.072 -1.208,0.117 l -0.2,0.027 c -3.685,0.499 -6.865,2.838 -8.51,6.258 -0.098,0.202 -0.188,0.405 -0.271,0.609 -1.233,3.007 -1.096,6.342 0.379,9.156 0.094,0.176 0.189,0.352 0.293,0.523 l 0.636,1.037 c 0.677,1.102 1.424,2.279 2.26,3.567 H 20.1 v -8.667 h -7.607 c -3.871,0 -7.021,3.149 -7.021,7.021 v 51.333 0.266 h 0.014 c 0.142,3.748 3.227,6.756 7.008,6.756 h 11.995 66.69 c 1.848,0 3.351,-1.502 3.351,-3.35 V 35.645 c -0.002,-1.848 -1.505,-3.35 -3.352,-3.35 z M 36.164,31.854 C 35.057,30.167 34.109,28.683 33.269,27.316 L 32.646,26.3 c -0.078,-0.129 -0.15,-0.262 -0.218,-0.391 -1.103,-2.102 -1.2,-4.606 -0.271,-6.873 0.063,-0.155 0.133,-0.312 0.207,-0.465 1.249,-2.599 3.656,-4.376 6.441,-4.753 l 0.21,-0.028 c 0.286,-0.041 0.584,-0.084 0.903,-0.092 l 0.111,-0.002 0.102,0.003 c 3.432,0.171 5.85,1.591 7.391,4.341 1.495,2.669 1.572,5.315 0.229,7.866 -0.101,0.192 -0.209,0.385 -0.324,0.572 l -0.518,0.828 c -1.033,1.66 -2.086,3.291 -3.193,4.988 -0.502,0.768 -1.011,1.546 -1.541,2.353 l -0.228,0.347 -0.139,0.211 c -0.523,0.797 -1.048,1.594 -1.567,2.393 -0.059,0.09 -0.107,0.149 -0.145,0.189 -0.033,-0.036 -0.074,-0.09 -0.125,-0.166 -0.574,-0.878 -1.154,-1.753 -1.734,-2.627 -0.128,-0.191 -0.254,-0.385 -0.381,-0.576 L 36.454,32.295 Z M 8.171,30.648 c 0,-2.383 1.938,-4.321 4.321,-4.321 h 4.907 v 7.317 41.317 h -4.907 c -1.63,0 -3.128,0.563 -4.321,1.498 V 30.648 Z m 83.657,55.005 c 0,0.358 -0.291,0.65 -0.65,0.65 h -7.846 c -0.066,-0.507 -0.166,-1.008 -0.309,-1.498 l -2.593,0.754 c 0.071,0.244 0.114,0.494 0.159,0.744 H 24.487 12.492 c -2.383,0 -4.321,-1.939 -4.321,-4.322 0,-2.382 1.938,-4.32 4.321,-4.32 H 20.1 V 34.994 h 14.902 l 0.605,0.918 c 0.705,1.06 1.41,2.123 2.104,3.184 0.815,1.256 1.844,1.443 2.384,1.443 0.662,0 1.618,-0.254 2.408,-1.468 0.52,-0.796 1.041,-1.59 1.563,-2.384 l 0.366,-0.558 c 0.255,-0.387 0.498,-0.759 0.745,-1.136 h 46 c 0.359,0 0.65,0.292 0.65,0.65 v 50.01 z"
       id="path251" fill="#ffffff"/><path
       d="m 42.517,27.222 c 0.598,-0.316 1.121,-0.741 1.557,-1.263 0.771,-0.925 1.195,-2.096 1.195,-3.298 0,-2.846 -2.314,-5.16 -5.159,-5.16 -2.846,0 -5.16,2.314 -5.16,5.16 0,1.202 0.425,2.374 1.196,3.299 0.435,0.52 0.957,0.944 1.556,1.261 0.738,0.392 1.571,0.599 2.408,0.599 0.837,0 1.669,-0.208 2.407,-0.598 z M 38.219,24.229 C 37.852,23.79 37.65,23.232 37.65,22.661 c 0,-1.356 1.104,-2.461 2.46,-2.461 1.355,0 2.459,1.104 2.459,2.461 0,0.571 -0.202,1.129 -0.568,1.568 -0.209,0.251 -0.461,0.454 -0.747,0.606 -0.711,0.377 -1.575,0.377 -2.288,0 -0.288,-0.151 -0.538,-0.356 -0.747,-0.606 z"
       id="path253" fill="#ffffff"/><path
       d="m 31.198,64.26 -1.797,-2.016 c -1.444,1.289 -2.487,2.948 -3.017,4.8 l 2.596,0.742 c 0.389,-1.359 1.156,-2.579 2.218,-3.526 z"
       id="path255" fill="#ffffff"/><path
       d="m 26.4,72.711 c 0.541,1.849 1.594,3.502 3.045,4.782 l 1.785,-2.025 c -1.067,-0.941 -1.842,-2.156 -2.238,-3.515 z"
       id="path257" fill="#ffffff"/><rect
       x="34.862999"
       y="41.868"
       width="4.9829998"
       height="2.6989999"
       id="rect259" fill="#ffffff"/><path
       d="m 74.432,80.259 c 1.396,0.223 2.697,0.839 3.764,1.781 l 1.788,-2.023 c -1.451,-1.282 -3.224,-2.12 -5.128,-2.424 z"
       id="path261" fill="#ffffff"/><path
       d="m 80.055,44.482 c -1.438,-1.296 -3.203,-2.15 -5.103,-2.472 l -0.45,2.662 c 1.395,0.236 2.689,0.863 3.746,1.815 z"
       id="path263" fill="#ffffff"/><path
       d="m 79.938,59.73 -1.776,-2.033 c -1.07,0.935 -2.375,1.543 -3.773,1.758 l 0.41,2.668 c 1.905,-0.292 3.682,-1.12 5.139,-2.393 z"
       id="path265" fill="#ffffff"/><path
       d="m 83.006,54.963 c 0.28,-0.942 0.422,-1.921 0.422,-2.908 0,-0.937 -0.128,-1.864 -0.379,-2.759 l -2.6,0.73 c 0.185,0.656 0.277,1.339 0.277,2.029 0.001,0.727 -0.104,1.446 -0.309,2.138 z"
       id="path267" fill="#ffffff"/><rect
       x="44.830002"
       y="41.868"
       width="4.9840002"
       height="2.6989999"
       id="rect269" fill="#ffffff"/><rect
       x="54.799"
       y="41.868"
       width="4.9840002"
       height="2.6989999"
       id="rect271" fill="#ffffff"/><rect
       x="64.766998"
       y="41.868"
       width="4.9829998"
       height="2.6989999"
       id="rect273" fill="#ffffff"/><rect
       x="54.664001"
       y="59.594002"
       transform="matrix(1,-0.0033,0.0033,1,-0.2027,0.1907)"
       width="4.9829998"
       height="2.6989999"
       id="rect275" fill="#ffffff"/><rect
       x="64.630997"
       y="59.562"
       transform="matrix(1,-0.0033,0.0033,1,-0.2025,0.2239)"
       width="4.9840002"
       height="2.6989999"
       id="rect277" fill="#ffffff"/><path
       d="m 34.997,77.244 -0.424,2.666 c 0.526,0.084 1.067,0.126 1.603,0.126 l 3.582,0.013 0.01,-2.699 -3.588,-0.013 c -0.399,0 -0.796,-0.031 -1.183,-0.093 z"
       id="path279" fill="#ffffff"/><rect
       x="44.695"
       y="59.626999"
       transform="matrix(1,-0.0033,0.0033,1,-0.2028,0.1575)"
       width="4.9840002"
       height="2.6989999"
       id="rect281" fill="#ffffff"/><rect
       x="64.681999"
       y="77.445"
       transform="matrix(-1,-0.0033,0.0033,-1,134.0848,157.8122)"
       width="4.9840002"
       height="2.6989999"
       id="rect283" fill="#ffffff"/><path
       d="m 36.185,62.362 3.531,-0.012 -0.009,-2.699 -3.527,0.012 c -0.559,0 -1.117,0.045 -1.664,0.135 l 0.438,2.664 c 0.401,-0.066 0.814,-0.1 1.231,-0.1 z"
       id="path285" fill="#ffffff"/><rect
       x="54.714001"
       y="77.410004"
       transform="matrix(-1,-0.0035,0.0035,-1,114.134,157.7208)"
       width="4.9840002"
       height="2.6989999"
       id="rect287" fill="#ffffff"/><rect
       x="44.745998"
       y="77.375"
       transform="matrix(-1,-0.0033,0.0033,-1,94.2141,157.6071)"
       width="4.9840002"
       height="2.6989999"
       id="rect289" fill="#ffffff"/><rect
       x="27.343"
       y="41.868"
       width="2.5"
       height="2.6989999"
       id="rect291" fill="#ffffff"/><path
       d="m 84.043,67.404 c -2.35,0 -4.262,1.912 -4.262,4.262 0,1.912 1.274,3.515 3.012,4.053 v 2.728 h 2.5 v -2.728 c 1.738,-0.538 3.013,-2.141 3.013,-4.053 0,-2.35 -1.912,-4.262 -4.263,-4.262 z m 0,6.024 c -0.971,0 -1.762,-0.79 -1.762,-1.762 0,-0.972 0.791,-1.762 1.762,-1.762 0.973,0 1.763,0.79 1.763,1.762 0,0.972 -0.79,1.762 -1.763,1.762 z"
       id="path293" fill="#ffffff"/><circle
       cx="82.730003"
       cy="40.248001"
       r="1.699"
       id="circle295" fill="#ffffff"/><path
       d="m 37.961,56.252 c 0.22,0.399 0.639,0.647 1.095,0.647 h 6.948 c 0.455,0 0.875,-0.248 1.094,-0.647 0.221,-0.398 0.205,-0.886 -0.037,-1.271 l -3.475,-5.492 c -0.229,-0.362 -0.627,-0.582 -1.057,-0.582 -0.428,0 -0.826,0.22 -1.056,0.582 L 38,54.981 c -0.244,0.385 -0.26,0.873 -0.039,1.271 z m 4.568,-3.756 1.205,1.903 h -2.408 z"
       id="path297" fill="#ffffff"/><path
       d="m 68.031,74.004 c 0.22,-0.399 0.205,-0.887 -0.039,-1.271 L 64.519,67.24 c -0.229,-0.362 -0.629,-0.582 -1.057,-0.582 -0.43,0 -0.828,0.22 -1.057,0.582 l -3.475,5.493 c -0.243,0.385 -0.258,0.872 -0.038,1.271 0.22,0.398 0.64,0.646 1.095,0.646 h 6.947 c 0.458,0 0.877,-0.248 1.097,-0.646 z m -5.773,-1.854 1.205,-1.904 1.203,1.904 z"
       id="path299" fill="#ffffff"/></g><text
     x="-5.4720001"
     y="104.005"
     fill="#ffffff"
     font-size="5px"
     font-weight="bold"
     font-family="'Helvetica Neue', Helvetica, Arial-Unicode, Arial, Sans-serif"
     id="text303">Created by suhyeon Jung</text><text
     x="-5.4720001"
     y="109.005"
     fill="#ffffff"
     font-size="5px"
     font-weight="bold"
     font-family="'Helvetica Neue', Helvetica, Arial-Unicode, Arial, Sans-serif"
     id="text305">from the Noun Project</text></svg>
